<svg xmlns="http://www.w3.org/2000/svg" xml:space="preserve" viewBox="0 0 400 140"><style>.st0{fill:#164f87}</style><path d="M77 27.6V20h3.6v7.6zM81 27.6V20h3.6v7.6zM84.9 27.6V20h3.6v7.6zM91.4 23.1v4.5h-.5v-4h-2v-.5zm-1 .9v3.5h-.5v-3.1h-1.1V24zM104.7 27.6V20h3.6v7.6zM108.6 27.6V20h3.6v7.6zM112.6 27.6V20h3.6v7.6zM119 23.1v4.5h-.5v-4h-2v-.5zm-.9.9v3.5h-.5v-3.1h-1.1V24zM77 35.7v-7.6h3.6v7.6zM81 35.7v-7.6h3.6v7.6zM84.9 35.7v-7.6h3.6v7.6zM88.9 35.7v-7.6h3.6v7.6zM95.3 31.2v4.5h-.5v-4h-2v-.5zm-.9.9v3.5h-.5v-3.1h-1.1V32h1.6zM100.7 35.7v-7.6h3.6v7.6zM104.7 35.7v-7.6h3.6v7.6zM108.6 35.7v-7.6h3.6v7.6zM112.6 35.7v-7.6h3.6v7.6zM117.6 28.1h.5v7.6h-.5zm.9 7.6v-7.6h.5v7.6zM77 43.7v-7.6h3.6v7.6zM81 43.7v-7.6h3.6v7.6zM88.5 39.2v.5h-2v4H86v-4.5zm-1.6 1h1.5v.5h-1.1v3.1h-.5v-3.6zM88.9 43.7v-7.6h3.6v7.6zM92.8 43.7v-7.6h3.6v7.6zM96.8 43.7v-7.6h3.6v7.6zM100.7 43.7v-7.6h3.6v7.6zM108.2 39.2v.5h-2v4h-.5v-4.5zm-1.5 1h1.5v.5h-1.1v3.1h-.5v-3.6zM108.6 43.7v-7.6h3.6v7.6zM112.6 43.7v-7.6h3.6v7.6zM117.6 36.2h.5v7.6h-.5zm.9 7.5v-7.6h.5v7.6zM77 51.8v-7.6h3.6v7.6zM81 51.8v-7.6h3.6v7.6zM86 44.3h.5v7.6H86zm.9 7.5v-7.6h.5v7.6zM89.9 48.8v-4.5h.5v4h2v.5zm1-1v-3.5h.5v3.1h1.1v.5h-1.6zM92.8 51.8v-7.6h3.6v7.6zM96.8 51.8v-7.6h3.6v7.6zM104.3 47.3v.5h-2v4h-.5v-4.5zm-1.6 1h1.5v.5h-1.1v3.1h-.5v-3.6zM104.7 48.8v-.5h2v-4h.5v4.5zm1.5-1h-1.5v-.5h1.1v-3.1h.5v3.6zM108.6 51.8v-7.6h3.6v7.6zM112.6 51.8v-7.6h3.6v7.6zM117.6 44.3h.5v7.6h-.5zm.9 7.5v-7.6h.5v7.6zM77 59.9v-7.6h3.6v7.6zM81 59.9v-7.6h3.6v7.6zM86 52.3h.5v7.6H86zm.9 7.6v-7.6h.5v7.6zM93.9 56.8v-4.5h.5v4h2v.5zm.9-.9v-3.5h.5v3.1h1.1v.5h-1.6zM96.8 55.4h3.6v.5h-3.6zm0 1h3.6v.5h-3.6zM100.7 56.8v-.5h2v-4h.5v4.5zm1.6-.9h-1.5v-.5h1.1v-3.1h.5v3.6zM108.6 59.9v-7.6h3.6v7.6zM112.6 59.9v-7.6h3.6v7.6zM117.6 52.3h.5v7.6h-.5zm.9 7.6v-7.6h.5v7.6zM78.1 64.9v-4.5h.5v4h2v.5zm.9-.9v-3.5h.5v3.1h1.1v.4zM81 63.5h3.6v.5H81zm0 1h3.6v.5H81zM84.9 64.9v-.5h2v-4h.5v4.5zm1.5-.9h-1.5v-.5H86v-3.1h.5V64zM109.7 64.9v-4.5h.5v4h2v.5zm.9-.9v-3.5h.5v3.1h1.1v.4zM112.6 63.5h3.6v.5h-3.6zm0 1h3.6v.5h-3.6zM116.5 64.9v-.5h2v-4h.5v4.5zm1.6-.9h-1.5v-.5h1.1v-3.1h.5V64zM126 27.6V20h3.6v7.6zM130 27.6V20h3.6v7.6zM133.9 27.6V20h3.6v7.6zM137.9 27.6V20h3.6v7.6zM141.8 27.6V20h3.6v7.6zM148.3 23.1v4.5h-.5v-4h-2v-.5zm-1 .9v3.5h-.5v-3.1h-1.1V24zM122.1 35.7v-7.6h3.6v7.6zM126 35.7v-7.6h3.6v7.6zM133.5 31.2v.5h-2v4h-.5v-4.5zm-1.5.9h1.5v.5h-1.1v3.1h-.4zM133.9 31.2h3.6v.5h-3.6zm0 .9h3.6v.5h-3.6zM137.9 31.2h3.6v.5h-3.6zm0 .9h3.6v.5h-3.6zM141.8 35.7v-7.6h3.6v7.6zM145.8 35.7v-7.6h3.6v7.6zM152.2 31.2v4.5h-.5v-4h-2v-.5zm-.9.9v3.5h-.5v-3.1h-1.1V32h1.6zM122.1 43.7v-7.6h3.6v7.6zM126 43.7v-7.6h3.6v7.6zM130 43.7v-7.6h3.6v7.6zM133.9 43.7v-7.6h3.6v7.6zM137.9 43.7v-7.6h3.6v7.6zM141.8 43.7v-7.6h3.6v7.6zM145.8 43.7v-7.6h3.6v7.6zM150.8 36.2h.5v7.6h-.5zm1 7.5v-7.6h.5v7.6zM122.1 51.8v-7.6h3.6v7.6zM126 51.8v-7.6h3.6v7.6zM133.5 47.3v.5h-2v4h-.5v-4.5zm-1.5 1h1.5v.5h-1.1v3.1h-.4zM133.9 47.3h3.6v.5h-3.6zm0 1h3.6v.5h-3.6zM137.9 47.3h3.6v.5h-3.6zm0 1h3.6v.5h-3.6zM141.8 51.8v-7.6h3.6v7.6zM145.8 51.8v-7.6h3.6v7.6zM150.8 44.3h.5v7.6h-.5zm1 7.5v-7.6h.5v7.6zM122.1 59.9v-7.6h3.6v7.6zM126 59.9v-7.6h3.6v7.6zM131 52.3h.5v7.6h-.5zm1 7.6v-7.6h.5v7.6zM141.8 59.9v-7.6h3.6v7.6zM145.8 59.9v-7.6h3.6v7.6zM150.8 52.3h.5v7.6h-.5zm1 7.6v-7.6h.5v7.6zM123.1 64.9v-4.5h.5v4h2v.5zm1-.9v-3.5h.5v3.1h1.1v.4zM126 63.5h3.6v.5H126zm0 1h3.6v.5H126zM130 64.9v-.5h2v-4h.5v4.5zm1.5-.9H130v-.5h1.1v-3.1h.5V64zM142.9 64.9v-4.5h.5v4h2v.5zm1-.9v-3.5h.5v3.1h1.1v.4zM145.8 63.5h3.6v.5h-3.6zm0 1h3.6v.5h-3.6zM149.7 64.9v-.5h2v-4h.5v4.5zm1.6-.9h-1.5v-.5h1.1v-3.1h.5V64zM155.3 27.6V20h3.6v7.6zM159.2 27.6V20h3.6v7.6zM163.2 27.6V20h3.6v7.6zM167.1 27.6V20h3.6v7.6zM171.1 27.6V20h3.6v7.6zM175 27.6V20h3.6v7.6zM179 27.6V20h3.6v7.6zM183 27.6V20h3.6v7.6zM189.4 23.1v4.5h-.5v-4h-2v-.5zm-1 .9v3.5h-.4v-3.1h-1.1V24zM156.4 32.6v-4.5h.5v4h2v.5zm.9-1v-3.5h.5v3.1h1.1v.5h-1.6zM159.2 31.2h3.6v.5h-3.6zm0 .9h3.6v.5h-3.6zM163.2 31.2h3.6v.5h-3.6zm0 .9h3.6v.5h-3.6zM167.1 35.7v-7.6h3.6v7.6zM171.1 35.7v-7.6h3.6v7.6zM178.6 31.2v.5h-2v4h-.5v-4.5zm-1.5.9h1.5v.5h-1.1v3.1h-.5v-3.6zM179 31.2h3.6v.5H179zm0 .9h3.6v.5H179zM183 31.2h3.6v.5H183zm0 .9h3.6v.5H183zM186.9 32.6v-.5h2v-4h.5v4.5zm1.5-1h-1.5v-.5h1.1V28h.5v3.6zM167.1 43.7v-7.6h3.6v7.6zM171.1 43.7v-7.6h3.6v7.6zM176.1 36.2h.5v7.6h-.5zm1 7.5v-7.6h.5v7.6zM167.1 51.8v-7.6h3.6v7.6zM171.1 51.8v-7.6h3.6v7.6zM176.1 44.3h.5v7.6h-.5zm1 7.5v-7.6h.5v7.6zM167.1 59.9v-7.6h3.6v7.6zM171.1 59.9v-7.6h3.6v7.6zM176.1 52.3h.5v7.6h-.5zm1 7.6v-7.6h.5v7.6zM168.2 64.9v-4.5h.5v4h2v.5zm1-.9v-3.5h.5v3.1h1.1v.4zM171.1 63.5h3.6v.5h-3.6zm0 1h3.6v.5h-3.6zM175 64.9v-.5h2v-4h.5v4.5zm1.6-.9H175v-.5h1.1v-3.1h.5zM192.5 27.6V20h3.6v7.6zM196.4 27.6V20h3.6v7.6zM200.4 27.6V20h3.6v7.6zM204.3 27.6V20h3.6v7.6zM208.3 27.6V20h3.6v7.6zM212.2 27.6V20h3.6v7.6zM218.7 23.1v4.5h-.5v-4h-2v-.5zm-1 .9v3.5h-.5v-3.1h-1.1V24zM192.5 35.7v-7.6h3.6v7.6zM196.4 35.7v-7.6h3.6v7.6zM203.9 31.2v.5h-2v4h-.5v-4.5zm-1.5.9h1.5v.5h-1.1v3.1h-.5v-3.6zM204.3 31.2h3.6v.5h-3.6zm0 .9h3.6v.5h-3.6zM208.3 31.2h3.6v.5h-3.6zm0 .9h3.6v.5h-3.6zM212.2 35.7v-7.6h3.6v7.6zM216.2 35.7v-7.6h3.6v7.6zM222.6 31.2v4.5h-.5v-4h-2v-.5zm-.9.9v3.5h-.5v-3.1h-1.1V32h1.6zM192.5 43.7v-7.6h3.6v7.6zM196.4 43.7v-7.6h3.6v7.6zM200.4 43.7v-7.6h3.6v7.6zM204.3 43.7v-7.6h3.6v7.6zM208.3 43.7v-7.6h3.6v7.6zM212.2 43.7v-7.6h3.6v7.6zM219.7 39.2v.5h-2v4h-.5v-4.5zm-1.5 1h1.5v.5h-1.1v3.1h-.5v-3.6zM220.1 40.7v-.5h2v-4h.5v4.5zm1.6-1h-1.5v-.5h1.1v-3.1h.5v3.6zM192.5 51.8v-7.6h3.6v7.6zM196.4 51.8v-7.6h3.6v7.6zM203.9 47.3v.5h-2v4h-.5v-4.5zm-1.5 1h1.5v.5h-1.1v3.1h-.5v-3.6zM204.3 47.3h3.6v.5h-3.6zm0 1h3.6v.5h-3.6zM208.3 47.3h3.6v.5h-3.6zm0 1h3.6v.5h-3.6zM212.2 51.8v-7.6h3.6v7.6zM216.2 51.8v-7.6h3.6v7.6zM222.6 47.3v4.5h-.5v-4h-2v-.5zm-.9 1v3.5h-.5v-3.1h-1.1v-.5h1.6zM192.5 59.9v-7.6h3.6v7.6zM196.4 59.9v-7.6h3.6v7.6zM201.4 52.3h.5v7.6h-.5zm1 7.6v-7.6h.5v7.6zM212.2 59.9v-7.6h3.6v7.6zM216.2 59.9v-7.6h3.6v7.6zM221.2 52.3h.5v7.6h-.5zm.9 7.6v-7.6h.5v7.6zM193.5 64.9v-4.5h.5v4h2v.5zm1-.9v-3.5h.5v3.1h1.1v.4zM196.4 63.5h3.6v.5h-3.6zm0 1h3.6v.5h-3.6zM200.4 64.9v-.5h2v-4h.5v4.5zm1.5-.9h-1.5v-.5h1.1v-3.1h.5V64zM213.3 64.9v-4.5h.5v4h2v.5zm.9-.9v-3.5h.5v3.1h1.1v.4zM216.2 63.5h3.6v.5h-3.6zm0 1h3.6v.5h-3.6zM220.1 64.9v-.5h2v-4h.5v4.5zm1.6-.9h-1.5v-.5h1.1v-3.1h.5V64zM225.7 27.6V20h3.6v7.6zM229.6 27.6V20h3.6v7.6zM236.1 23.1v4.5h-.5v-4h-2v-.5zm-1 .9v3.5h-.5v-3.1h-1.1V24zM225.7 35.7v-7.6h3.6v7.6zM229.6 35.7v-7.6h3.6v7.6zM234.6 28.1h.5v7.6h-.5zm1 7.6v-7.6h.5v7.6zM225.7 43.7v-7.6h3.6v7.6zM229.6 43.7v-7.6h3.6v7.6zM234.6 36.2h.5v7.6h-.5zm1 7.5v-7.6h.5v7.6zM225.7 51.8v-7.6h3.6v7.6zM229.6 51.8v-7.6h3.6v7.6zM234.6 44.3h.5v7.6h-.5zm1 7.5v-7.6h.5v7.6zM225.7 59.9v-7.6h3.6v7.6zM229.6 59.9v-7.6h3.6v7.6zM234.6 52.3h.5v7.6h-.5zm1 7.6v-7.6h.5v7.6zM226.7 64.9v-4.5h.5v4h2v.5zm1-.9v-3.5h.5v3.1h1.1v.4zM229.6 63.5h3.6v.5h-3.6zm0 1h3.6v.5h-3.6zM233.6 64.9v-.5h2v-4h.5v4.5zm1.5-.9h-1.5v-.5h1.1v-3.1h.5V64zM239.1 27.6V20h3.6v7.6zM243.1 27.6V20h3.6v7.6zM249.5 23.1v4.5h-.5v-4h-2v-.5zm-.9.9v3.5h-.5v-3.1H247V24zM258.9 27.6V20h3.6v7.6zM262.8 27.6V20h3.6v7.6zM269.3 23.1v4.5h-.5v-4h-2v-.5zm-1 .9v3.5h-.5v-3.1h-1.1V24zM240.2 32.6v-4.5h.5v4h2v.5zm.9-1v-3.5h.5v3.1h1.1v.5h-1.6zM243.1 35.7v-7.6h3.6v7.6zM247 35.7v-7.6h3.6v7.6zM253.5 31.2v4.5h-.5v-4h-2v-.5zm-1 .9v3.5h-.5v-3.1h-1V32h1.5zM254.9 35.7v-7.6h3.6v7.6zM258.9 35.7v-7.6h3.6v7.6zM266.4 31.2v.5h-2v4h-.5v-4.5zm-1.6.9h1.5v.5h-1.1v3.1h-.5v-3.6zM266.8 32.6v-.5h2v-4h.5v4.5zm1.5-1h-1.5v-.5h1.1V28h.5v3.6zM244.1 40.7v-4.5h.5v4h2v.5zm1-1v-3.5h.5v3.1h1.1v.5h-1.6zM247 43.7v-7.6h3.6v7.6zM251 43.7v-7.6h3.6v7.6zM254.9 43.7v-7.6h3.6v7.6zM262.4 39.2v.5h-2v4h-.5v-4.5zm-1.5 1h1.5v.5h-1.1v3.1h-.5v-3.6zM262.8 40.7v-.5h2v-4h.5v4.5zm1.6-1h-1.5v-.5h1.1v-3.1h.5v3.6zM243.1 51.8v-7.6h3.6v7.6zM247 51.8v-7.6h3.6v7.6zM254.5 47.3v.5h-2v4h-.5v-4.5zm-1.5 1h1.5v.5h-1.1v3.1h-.4zM254.9 51.8v-7.6h3.6v7.6zM258.9 51.8v-7.6h3.6v7.6zM265.3 47.3v4.5h-.5v-4h-2v-.5zm-.9 1v3.5h-.5v-3.1h-1.1v-.5h1.6zM239.1 59.9v-7.6h3.6v7.6zM243.1 59.9v-7.6h3.6v7.6zM250.6 55.4v.5h-2v4h-.5v-4.5zm-1.6 1h1.5v.5h-1.1V60h-.4zM251 56.8v-.5h2v-4h.5v4.5zm1.5-.9H251v-.5h1.1v-3.1h.5v3.6zM258.9 59.9v-7.6h3.6v7.6zM262.8 59.9v-7.6h3.6v7.6zM269.3 55.4v4.5h-.5v-4h-2v-.5zm-1 1v3.5h-.5v-3.1h-1.1v-.5h1.6zM240.2 64.9v-4.5h.5v4h2v.5zm.9-.9v-3.5h.5v3.1h1.1v.4zM243.1 63.5h3.6v.5h-3.6zm0 1h3.6v.5h-3.6zM247 64.9v-.5h2v-4h.5v4.5zm1.6-.9H247v-.5h1.1v-3.1h.5zM259.9 64.9v-4.5h.5v4h2v.5zm1-.9v-3.5h.5v3.1h1.1v.4zM262.8 63.5h3.6v.5h-3.6zm0 1h3.6v.5h-3.6zM266.8 64.9v-.5h2v-4h.5v4.5zm1.5-.9h-1.5v-.5h1.1v-3.1h.5V64z" class="st0"/><path d="M114.9 82.6V75h3.6v7.6zM118.9 82.6V75h3.6v7.6zM125.3 78.2v4.5h-.5v-4h-2v-.5zm-.9.9v3.5h-.5v-3.1h-1.1V79h1.6zM142.6 82.6V75h3.6v7.6zM146.5 82.6V75h3.6v7.6zM153 78.2v4.5h-.5v-4h-2v-.5zm-1 .9v3.5h-.5v-3.1h-1.1V79h1.6zM114.9 90.7v-7.6h3.6v7.6zM118.9 90.7v-7.6h3.6v7.6zM123.9 83.2h.5v7.6h-.5zm.9 7.5v-7.6h.5v7.6zM142.6 90.7v-7.6h3.6v7.6zM146.5 90.7v-7.6h3.6v7.6zM151.6 83.2h.5v7.6h-.5zm.9 7.5v-7.6h.5v7.6zM114.9 98.8v-7.6h3.6v7.6zM118.9 98.8v-7.6h3.6v7.6zM123.9 91.2h.5v7.6h-.5zm.9 7.6v-7.6h.5v7.6zM130.7 98.8v-7.6h3.6v7.6zM137.2 94.3v4.5h-.5v-4h-2v-.5zm-1 1v3.5h-.5v-3.1h-1.1v-.5h1.6zM142.6 98.8v-7.6h3.6v7.6zM146.5 98.8v-7.6h3.6v7.6zM151.6 91.2h.5v7.6h-.5zm.9 7.6v-7.6h.5v7.6zM114.9 106.9v-7.6h3.6v7.6zM118.9 106.9v-7.6h3.6v7.6zM123.9 99.3h.5v7.6h-.5zm.9 7.6v-7.6h.5v7.6zM126.8 106.9v-7.6h3.6v7.6zM130.7 106.9v-7.6h3.6v7.6zM134.7 106.9v-7.6h3.6v7.6zM141.1 102.4v4.5h-.5v-4h-2v-.5zm-.9 1v3.5h-.5v-3.1h-1.1v-.5h1.6zM142.6 106.9v-7.6h3.6v7.6zM146.5 106.9v-7.6h3.6v7.6zM151.6 99.3h.5v7.6h-.5zm.9 7.6v-7.6h.5v7.6zM116 111.9v-4.5h.5v4h2v.5zm.9-.9v-3.5h.5v3.1h1.1v.5h-1.6zM118.9 115v-7.6h3.6v7.6zM122.8 115v-7.6h3.6v7.6zM126.8 115v-7.6h3.6v7.6zM134.3 110.5v.5h-2v4h-.5v-4.5zm-1.6.9h1.5v.5h-1.1v3.1h-.5v-3.6zM134.7 115v-7.6h3.6v7.6zM138.6 115v-7.6h3.6v7.6zM142.6 115v-7.6h3.6v7.6zM150.1 110.5v.5h-2v4h-.5v-4.5zm-1.5.9h1.5v.5H149v3.1h-.5v-3.6zM150.5 111.9v-.5h2v-4h.5v4.5zm1.5-.9h-1.5v-.5h1.1v-3.1h.5v3.6zM119.9 120v-4.5h.5v4h2v.5zm1-.9v-3.5h.5v3.1h1.1v.5h-1.6zM122.8 118.6h3.6v.5h-3.6zm0 .9h3.6v.5h-3.6zM126.8 118.6h3.6v.5h-3.6zm0 .9h3.6v.5h-3.6zM130.7 120v-.5h2v-4h.5v4.5zm1.6-.9h-1.5v-.5h1.1v-3.1h.5v3.6zM135.7 120v-4.5h.5v4h2v.5zm1-.9v-3.5h.5v3.1h1.1v.5h-1.6zM138.6 118.6h3.6v.5h-3.6zm0 .9h3.6v.5h-3.6zM142.6 118.6h3.6v.5h-3.6zm0 .9h3.6v.5h-3.6zM146.5 120v-.5h2v-4h.5v4.5zm1.6-.9h-1.5v-.5h1.1v-3.1h.5v3.6zM160 82.6V75h3.6v7.6zM163.9 82.6V75h3.6v7.6zM167.9 82.6V75h3.6v7.6zM171.8 82.6V75h3.6v7.6zM175.8 82.6V75h3.6v7.6zM182.2 78.2v4.5h-.5v-4h-2v-.5zm-.9.9v3.5h-.5v-3.1h-1.1V79h1.6zM156 90.7v-7.6h3.6v7.6zM160 90.7v-7.6h3.6v7.6zM167.5 86.2v.5h-2v4h-.5v-4.5zm-1.5 1h1.5v.5h-1.1v3.1h-.4zM167.9 86.2h3.6v.5h-3.6zm0 1h3.6v.5h-3.6zM171.8 86.2h3.6v.5h-3.6zm0 1h3.6v.5h-3.6zM175.8 90.7v-7.6h3.6v7.6zM179.7 90.7v-7.6h3.6v7.6zM186.2 86.2v4.5h-.5v-4h-2v-.5zm-1 1v3.5h-.5v-3.1h-1.1v-.5h1.6zM156 98.8v-7.6h3.6v7.6zM160 98.8v-7.6h3.6v7.6zM163.9 98.8v-7.6h3.6v7.6zM167.9 98.8v-7.6h3.6v7.6zM171.8 98.8v-7.6h3.6v7.6zM175.8 98.8v-7.6h3.6v7.6zM179.7 98.8v-7.6h3.6v7.6zM184.8 91.2h.5v7.6h-.5zm.9 7.6v-7.6h.5v7.6zM156 106.9v-7.6h3.6v7.6zM160 106.9v-7.6h3.6v7.6zM167.5 102.4v.5h-2v4h-.5v-4.5zm-1.5 1h1.5v.5h-1.1v3.1h-.4zM167.9 102.4h3.6v.5h-3.6zm0 1h3.6v.5h-3.6zM171.8 102.4h3.6v.5h-3.6zm0 1h3.6v.5h-3.6zM175.8 106.9v-7.6h3.6v7.6zM179.7 106.9v-7.6h3.6v7.6zM184.8 99.3h.5v7.6h-.5zm.9 7.6v-7.6h.5v7.6zM156 115v-7.6h3.6v7.6zM160 115v-7.6h3.6v7.6zM165 107.4h.5v7.6h-.5zm1 7.6v-7.6h.5v7.6zM175.8 115v-7.6h3.6v7.6zM179.7 115v-7.6h3.6v7.6zM184.8 107.4h.5v7.6h-.5zm.9 7.6v-7.6h.5v7.6zM157.1 120v-4.5h.5v4h2v.5zm1-.9v-3.5h.5v3.1h1.1v.5h-1.6zM160 118.6h3.6v.5H160zm0 .9h3.6v.5H160zM163.9 120v-.5h2v-4h.5v4.5zm1.6-.9H164v-.5h1.1v-3.1h.5v3.6zM176.9 120v-4.5h.5v4h2v.5zm.9-.9v-3.5h.5v3.1h1.1v.5h-1.6zM179.7 118.6h3.6v.5h-3.6zm0 .9h3.6v.5h-3.6zM183.7 120v-.5h2v-4h.5v4.5zm1.5-.9h-1.5v-.5h1.1v-3.1h.5v3.6zM189.2 82.6V75h3.6v7.6zM193.2 82.6V75h3.6v7.6zM199.6 78.2v4.5h-.5v-4h-2v-.5zm-.9.9v3.5h-.5v-3.1h-1.1V79h1.6zM209 82.6V75h3.6v7.6zM213 82.6V75h3.6v7.6zM219.4 78.2v4.5h-.5v-4h-2v-.5zm-.9.9v3.5h-.5v-3.1h-1.1V79h1.6zM189.2 90.7v-7.6h3.6v7.6zM193.2 90.7v-7.6h3.6v7.6zM198.2 83.2h.5v7.6h-.5zm1 7.5v-7.6h.5v7.6zM205.1 90.7v-7.6h3.6v7.6zM209 90.7v-7.6h3.6v7.6zM216.5 86.2v.5h-2v4h-.5v-4.5zm-1.5 1h1.5v.5h-1.1v3.1h-.4zM216.9 87.7v-.5h2v-4h.5v4.5zm1.6-1H217v-.5h1.1v-3.1h.5v3.6zM189.2 98.8v-7.6h3.6v7.6zM193.2 98.8v-7.6h3.6v7.6zM197.2 98.8v-7.6h3.6v7.6zM201.1 98.8v-7.6h3.6v7.6zM205.1 98.8v-7.6h3.6v7.6zM212.6 94.3v.5h-2v4h-.5v-4.5zm-1.6 1h1.5v.5h-1.1v3.1h-.4zM213 95.7v-.5h2v-4h.5v4.5zm1.5-.9H213v-.5h1.1v-3.1h.5v3.6zM189.2 106.9v-7.6h3.6v7.6zM193.2 106.9v-7.6h3.6v7.6zM200.7 102.4v.5h-2v4h-.5v-4.5zm-1.5 1h1.5v.5h-1.1v3.1h-.5v-3.6zM201.1 102.4h3.6v.5h-3.6zm0 1h3.6v.5h-3.6zM205.1 106.9v-7.6h3.6v7.6zM209 106.9v-7.6h3.6v7.6zM215.5 102.4v4.5h-.5v-4h-2v-.5zm-1 1v3.5h-.5v-3.1h-1v-.5h1.5zM189.2 115v-7.6h3.6v7.6zM193.2 115v-7.6h3.6v7.6zM198.2 107.4h.5v7.6h-.5zm1 7.6v-7.6h.5v7.6zM209 115v-7.6h3.6v7.6zM213 115v-7.6h3.6v7.6zM219.4 110.5v4.5h-.5v-4h-2v-.5zm-.9.9v3.5h-.5v-3.1h-1.1v-.5h1.6zM190.3 120v-4.5h.5v4h2v.5zm1-.9v-3.5h.5v3.1h1.1v.5h-1.6zM193.2 118.6h3.6v.5h-3.6zm0 .9h3.6v.5h-3.6zM197.2 120v-.5h2v-4h.5v4.5zm1.5-.9h-1.5v-.5h1.1v-3.1h.5v3.6zM210.1 120v-4.5h.5v4h2v.5zm.9-.9v-3.5h.5v3.1h1.1v.5H211zM213 118.6h3.6v.5H213zm0 .9h3.6v.5H213zM216.9 120v-.5h2v-4h.5v4.5zm1.6-.9H217v-.5h1.1v-3.1h.5v3.6zM222.5 82.6V75h3.6v7.6zM226.4 82.6V75h3.6v7.6zM230.4 82.6V75h3.6v7.6zM234.3 82.6V75h3.6v7.6zM238.3 82.6V75h3.6v7.6zM242.2 82.6V75h3.6v7.6zM246.2 82.6V75h3.6v7.6zM252.6 78.2v4.5h-.5v-4h-2v-.5zm-.9.9v3.5h-.5v-3.1h-1.1V79h1.6zM222.5 90.7v-7.6h3.6v7.6zM226.4 90.7v-7.6h3.6v7.6zM233.9 86.2v.5h-2v4h-.5v-4.5zm-1.5 1h1.5v.5h-1.1v3.1h-.5v-3.6zM234.3 86.2h3.6v.5h-3.6zm0 1h3.6v.5h-3.6zM238.3 86.2h3.6v.5h-3.6zm0 1h3.6v.5h-3.6zM242.2 86.2h3.6v.5h-3.6zm0 1h3.6v.5h-3.6zM246.2 86.2h3.6v.5h-3.6zm0 1h3.6v.5h-3.6zM250.1 87.7v-.5h2v-4h.5v4.5zm1.6-1h-1.5v-.5h1.1v-3.1h.5v3.6zM222.5 98.8v-7.6h3.6v7.6zM226.4 98.8v-7.6h3.6v7.6zM230.4 98.8v-7.6h3.6v7.6zM234.3 98.8v-7.6h3.6v7.6zM238.3 98.8v-7.6h3.6v7.6zM244.7 94.3v4.5h-.5v-4h-2v-.5zm-.9 1v3.5h-.5v-3.1h-1.1v-.5h1.6zM222.5 106.9v-7.6h3.6v7.6zM226.4 106.9v-7.6h3.6v7.6zM233.9 102.4v.5h-2v4h-.5v-4.5zm-1.5 1h1.5v.5h-1.1v3.1h-.5v-3.6zM234.3 102.4h3.6v.5h-3.6zm0 1h3.6v.5h-3.6zM238.3 102.4h3.6v.5h-3.6zm0 1h3.6v.5h-3.6zM242.2 103.8v-.5h2v-4h.5v4.5zm1.6-.9h-1.5v-.5h1.1v-3.1h.5v3.6zM222.5 115v-7.6h3.6v7.6zM226.4 115v-7.6h3.6v7.6zM230.4 115v-7.6h3.6v7.6zM234.3 115v-7.6h3.6v7.6zM238.3 115v-7.6h3.6v7.6zM242.2 115v-7.6h3.6v7.6zM246.2 115v-7.6h3.6v7.6zM252.6 110.5v4.5h-.5v-4h-2v-.5zm-.9.9v3.5h-.5v-3.1h-1.1v-.5h1.6zM223.5 120v-4.5h.5v4h2v.5zm1-.9v-3.5h.5v3.1h1.1v.5h-1.6zM226.4 118.6h3.6v.5h-3.6zm0 .9h3.6v.5h-3.6zM230.4 118.6h3.6v.5h-3.6zm0 .9h3.6v.5h-3.6zM234.3 118.6h3.6v.5h-3.6zm0 .9h3.6v.5h-3.6zM238.3 118.6h3.6v.5h-3.6zm0 .9h3.6v.5h-3.6zM242.2 118.6h3.6v.5h-3.6zm0 .9h3.6v.5h-3.6zM246.2 118.6h3.6v.5h-3.6zm0 .9h3.6v.5h-3.6zM250.1 120v-.5h2v-4h.5v4.5zm1.6-.9h-1.5v-.5h1.1v-3.1h.5v3.6zM255.7 82.6V75h3.6v7.6zM259.6 82.6V75h3.6v7.6zM266.1 78.2v4.5h-.5v-4h-2v-.5zm-1 .9v3.5h-.5v-3.1h-1.1V79h1.6zM279.4 82.6V75h3.6v7.6zM283.3 82.6V75h3.6v7.6zM289.8 78.2v4.5h-.5v-4h-2v-.5zm-1 .9v3.5h-.5v-3.1h-1.1V79h1.6zM255.7 90.7v-7.6h3.6v7.6zM259.6 90.7v-7.6h3.6v7.6zM264.6 83.2h.5v7.6h-.5zm1 7.5v-7.6h.5v7.6zM279.4 90.7v-7.6h3.6v7.6zM283.3 90.7v-7.6h3.6v7.6zM288.4 83.2h.5v7.6h-.5zm.9 7.5v-7.6h.5v7.6zM255.7 98.8v-7.6h3.6v7.6zM259.6 98.8v-7.6h3.6v7.6zM264.6 91.2h.5v7.6h-.5zm1 7.6v-7.6h.5v7.6zM279.4 98.8v-7.6h3.6v7.6zM283.3 98.8v-7.6h3.6v7.6zM288.4 91.2h.5v7.6h-.5zm.9 7.6v-7.6h.5v7.6zM255.7 106.9v-7.6h3.6v7.6zM259.6 106.9v-7.6h3.6v7.6zM264.6 99.3h.5v7.6h-.5zm1 7.6v-7.6h.5v7.6zM279.4 106.9v-7.6h3.6v7.6zM283.3 106.9v-7.6h3.6v7.6zM288.4 99.3h.5v7.6h-.5zm.9 7.6v-7.6h.5v7.6zM256.7 111.9v-4.5h.5v4h2v.5zm1-.9v-3.5h.5v3.1h1.1v.5h-1.6zM259.6 115v-7.6h3.6v7.6zM263.6 115v-7.6h3.6v7.6zM267.5 115v-7.6h3.6v7.6zM271.5 115v-7.6h3.6v7.6zM275.4 115v-7.6h3.6v7.6zM279.4 115v-7.6h3.6v7.6zM286.9 110.5v.5h-2v4h-.5v-4.5zm-1.5.9h1.5v.5h-1.1v3.1h-.5v-3.6zM287.3 111.9v-.5h2v-4h.5v4.5zm1.5-.9h-1.5v-.5h1.1v-3.1h.5v3.6zM260.7 120v-4.5h.5v4h2v.5zm.9-.9v-3.5h.5v3.1h1.1v.5h-1.6zM263.6 118.6h3.6v.5h-3.6zm0 .9h3.6v.5h-3.6zM267.5 118.6h3.6v.5h-3.6zm0 .9h3.6v.5h-3.6zM271.5 118.6h3.6v.5h-3.6zm0 .9h3.6v.5h-3.6zM275.4 118.6h3.6v.5h-3.6zm0 .9h3.6v.5h-3.6zM279.4 118.6h3.6v.5h-3.6zm0 .9h3.6v.5h-3.6zM283.3 120v-.5h2v-4h.5v4.5zm1.6-.9h-1.5v-.5h1.1v-3.1h.5v3.6zM292.8 82.6V75h3.6v7.6zM296.8 82.6V75h3.6v7.6zM300.7 82.6V75h3.6v7.6zM304.7 82.6V75h3.6v7.6zM308.6 82.6V75h3.6v7.6zM312.6 82.6V75h3.6v7.6zM319 78.2v4.5h-.5v-4h-2v-.5zm-.9.9v3.5h-.5v-3.1h-1.1V79h1.6zM292.8 90.7v-7.6h3.6v7.6zM296.8 90.7v-7.6h3.6v7.6zM304.3 86.2v.5h-2v4h-.5v-4.5zm-1.5 1h1.5v.5h-1.1v3.1h-.5v-3.6zM304.7 86.2h3.6v.5h-3.6zm0 1h3.6v.5h-3.6zM308.6 86.2h3.6v.5h-3.6zm0 1h3.6v.5h-3.6zM312.6 90.7v-7.6h3.6v7.6zM316.6 90.7v-7.6h3.6v7.6zM323 86.2v4.5h-.5v-4h-2v-.5zm-.9 1v3.5h-.5v-3.1h-1.1v-.5h1.6zM292.8 98.8v-7.6h3.6v7.6zM296.8 98.8v-7.6h3.6v7.6zM300.7 98.8v-7.6h3.6v7.6zM304.7 98.8v-7.6h3.6v7.6zM308.6 98.8v-7.6h3.6v7.6zM312.6 98.8v-7.6h3.6v7.6zM320.1 94.3v.5h-2v4h-.5v-4.5zm-1.5 1h1.5v.5H319v3.1h-.5v-3.6zM320.5 95.7v-.5h2v-4h.5v4.5zm1.6-.9h-1.5v-.5h1.1v-3.1h.5v3.6zM292.8 106.9v-7.6h3.6v7.6zM296.8 106.9v-7.6h3.6v7.6zM304.3 102.4v.5h-2v4h-.5v-4.5zm-1.5 1h1.5v.5h-1.1v3.1h-.5v-3.6zM304.7 102.4h3.6v.5h-3.6zm0 1h3.6v.5h-3.6zM308.6 102.4h3.6v.5h-3.6zm0 1h3.6v.5h-3.6zM312.6 102.4h3.6v.5h-3.6zm0 1h3.6v.5h-3.6zM316.6 103.8v-.5h2v-4h.5v4.5zm1.5-.9h-1.5v-.5h1.1v-3.1h.5v3.6zM292.8 115v-7.6h3.6v7.6zM296.8 115v-7.6h3.6v7.6zM301.8 107.4h.5v7.6h-.5zm1 7.6v-7.6h.5v7.6zM293.9 120v-4.5h.5v4h2v.5zm1-.9v-3.5h.5v3.1h1.1v.5h-1.6zM296.8 118.6h3.6v.5h-3.6zm0 .9h3.6v.5h-3.6zM300.7 120v-.5h2v-4h.5v4.5zm1.6-.9h-1.5v-.5h1.1v-3.1h.5v3.6z"/></svg>