<svg xmlns="http://www.w3.org/2000/svg" xml:space="preserve" viewBox="0 0 400 140"><style>.st0{fill:#164f87}</style><path d="M86 27.9V20h4.2v7.9zM90.9 27.9V20h4.2v7.9zM95.8 27.9V20h4.2v7.9zM103.1 27.9v-4.1h-2.4v-.5h2.9v4.6zm-1.1-3.1h-1.3v-.5h1.8v3.6h-.5zM120.2 27.9V20h4.2v7.9zM125.2 27.9V20h4.2v7.9zM130.1 27.9V20h4.2v7.9zM137.4 27.9v-4.1H135v-.5h2.9v4.6zm-1.2-3.1h-1.3v-.5h1.8v3.6h-.5zM144.7 27.9V20h4.2v7.9zM149.6 27.9V20h4.2v7.9zM154.5 27.9V20h4.2v7.9zM159.4 27.9V20h4.2v7.9zM164.3 27.9V20h4.2v7.9zM171.6 27.9v-4.1h-2.4v-.5h2.9v4.6zm-1.1-3.1h-1.3v-.5h1.8v3.6h-.5zM179 27.9V20h4.2v7.9zM183.9 27.9V20h4.2v7.9zM188.8 27.9V20h4.2v7.9zM193.6 27.9V20h4.2v7.9zM198.6 27.9V20h4.2v7.9zM203.4 27.9V20h4.2v7.9zM208.4 27.9V20h4.2v7.9zM213.2 27.9V20h4.2v7.9zM220.5 27.9v-4.1h-2.4v-.5h2.9v4.6zm-1.1-3.1h-1.3v-.5h1.8v3.6h-.5zM223 27.9V20h4.2v7.9zM227.9 27.9V20h4.2v7.9zM232.8 27.9V20h4.2v7.9zM237.7 27.9V20h4.2v7.9zM242.6 27.9V20h4.2v7.9zM247.5 27.9V20h4.2v7.9zM254.8 27.9v-4.1h-2.4v-.5h2.9v4.6zm-1.1-3.1h-1.3v-.5h1.8v3.6h-.5zM262.1 27.9V20h4.2v7.9zM267 27.9V20h4.2v7.9zM274.4 27.9v-4.1H272v-.5h2.9v4.6zm-1.2-3.1H272v-.5h1.8v3.6h-.5v-3.1zM276.9 27.9V20h4.2v7.9zM281.8 27.9V20h4.2v7.9zM289 27.9v-4.1h-2.4v-.5h2.9v4.6zm-1-3.1h-1.3v-.5h1.8v3.6h-.5zM301.3 27.9V20h4.2v7.9zM306.2 27.9V20h4.2v7.9zM313.5 27.9v-4.1h-2.4v-.5h2.9v4.6zm-1.1-3.1h-1.3v-.5h1.8v3.6h-.5zM86 36.3v-7.9h4.2v7.9zM90.9 36.3v-7.9h4.2v7.9zM95.8 36.3v-7.9h4.2v7.9zM100.7 36.3v-7.9h4.2v7.9zM107.9 36.3v-4.2h-2.4v-.5h2.9v4.6h-.5zm-1.1-3.1h-1.3v-.5h1.8v3.6h-.5zM115.3 36.3v-7.9h4.2v7.9zM120.2 36.3v-7.9h4.2v7.9zM125.2 36.3v-7.9h4.2v7.9zM130.1 36.3v-7.9h4.2v7.9zM136.2 36.3v-7.9h.5v7.9zm1.2 0v-7.9h.5v7.9zM139.9 36.3v-7.9h4.2v7.9zM144.7 36.3v-7.9h4.2v7.9zM151.4 36.3h-.5v-4.6h2.9v.5h-2.4zm1.1-3.1v3.1h-.5v-3.6h1.8v.5zM158.7 32.1h-4.2v-.5h4.2zm0 1.1h-4.2v-.5h4.2zM163.6 32.1h-4.2v-.5h4.2zm0 1.1h-4.2v-.5h4.2zM164.3 36.3v-7.9h4.2v7.9zM169.2 36.3v-7.9h4.2v7.9zM176.5 36.3v-4.2h-2.4v-.5h2.9v4.6h-.5zm-1.1-3.1h-1.3v-.5h1.8v3.6h-.5zM180.8 28.4v4.3h2.4v.5h-2.9v-4.8zm1.1 3.2h1.3v.5h-1.8v-3.7h.5zM188.1 32.1h-4.2v-.5h4.2zm0 1.1h-4.2v-.5h4.2zM192.9 32.1h-4.2v-.5h4.2zm0 1.1h-4.2v-.5h4.2zM193.6 36.3v-7.9h4.2v7.9zM198.6 36.3v-7.9h4.2v7.9zM205.2 36.3h-.5v-4.6h2.9v.5h-2.4zm1.2-3.1v3.1h-.5v-3.6h1.8v.5zM212.6 32.1h-4.2v-.5h4.2zm0 1.1h-4.2v-.5h4.2zM217.4 32.1h-4.2v-.5h4.2zm0 1.1h-4.2v-.5h4.2zM220.5 28.4h.5v4.8h-2.9v-.5h2.4zm-1.1 3.2v-3.2h.5v3.7h-1.8v-.5zM223 36.3v-7.9h4.2v7.9zM227.9 36.3v-7.9h4.2v7.9zM234.6 36.3h-.5v-4.6h2.9v.5h-2.4zm1.1-3.1v3.1h-.5v-3.6h1.8v.5zM241.9 32.1h-4.2v-.5h4.2zm0 1.1h-4.2v-.5h4.2zM246.8 32.1h-4.2v-.5h4.2zm0 1.1h-4.2v-.5h4.2zM247.5 36.3v-7.9h4.2v7.9zM252.4 36.3v-7.9h4.2v7.9zM259.6 36.3v-4.2h-2.4v-.5h2.9v4.6h-.5zm-1-3.1h-1.3v-.5h1.8v3.6h-.5zM262.1 36.3v-7.9h4.2v7.9zM267 36.3v-7.9h4.2v7.9zM273.2 36.3v-7.9h.5v7.9zm1.2 0v-7.9h.5v7.9zM278.6 28.4v4.3h2.4v.5h-2.9v-4.8zm1.2 3.2h1.3v.5h-1.8v-3.7h.5zM281.8 36.3v-7.9h4.2v7.9zM286.6 36.3v-7.9h4.2v7.9zM293.9 36.3v-4.2h-2.4v-.5h2.9v4.6h-.5zm-1-3.1h-1.3v-.5h1.8v3.6h-.5zM296.5 36.3v-7.9h4.2v7.9zM301.3 36.3v-7.9h4.2v7.9zM308 36.3h-.5v-4.6h2.9v.5H308zm1.1-3.1v3.1h-.5v-3.6h1.8v.5zM313.5 28.4h.5v4.8h-2.9v-.5h2.4zm-1.1 3.2v-3.2h.5v3.7h-1.8v-.5zM86 44.6v-7.9h4.2v7.9zM90.9 44.6v-7.9h4.2v7.9zM97.6 44.6h-.5V40h2.9v.5h-2.4zm1.1-3.1v3.1h-.5V41h1.8v.5zM100.7 44.6v-7.9h4.2v7.9zM105.6 44.6v-7.9h4.2v7.9zM110.4 44.6v-7.9h4.2v7.9zM115.3 44.6v-7.9h4.2v7.9zM122.1 44.6h-.5V40h2.9v.5h-2.4zm1.1-3.1v3.1h-.5V41h1.8v.5zM125.2 44.6v-7.9h4.2v7.9zM130.1 44.6v-7.9h4.2v7.9zM136.2 44.6v-7.9h.5v7.9zm1.2 0v-7.9h.5v7.9zM139.9 44.6v-7.9h4.2v7.9zM144.7 44.6v-7.9h4.2v7.9zM149.6 44.6v-7.9h4.2v7.9zM154.5 44.6v-7.9h4.2v7.9zM159.4 44.6v-7.9h4.2v7.9zM164.3 44.6v-7.9h4.2v7.9zM169.2 44.6v-7.9h4.2v7.9zM175.4 44.6v-7.9h.5v7.9zm1.1 0v-7.9h.5v7.9zM193.6 44.6v-7.9h4.2v7.9zM198.6 44.6v-7.9h4.2v7.9zM204.8 44.6v-7.9h.5v7.9zm1.1 0v-7.9h.5v7.9zM223 44.6v-7.9h4.2v7.9zM227.9 44.6v-7.9h4.2v7.9zM232.8 44.6v-7.9h4.2v7.9zM237.7 44.6v-7.9h4.2v7.9zM242.6 44.6v-7.9h4.2v7.9zM247.5 44.6v-7.9h4.2v7.9zM254.2 44.6h-.5V40h2.9v.5h-2.4zm1.1-3.1v3.1h-.5V41h1.8v.5zM259.6 36.8h.5v4.8h-2.9V41h2.4zm-1 3.2v-3.2h.5v3.8h-1.8V40zM262.1 44.6v-7.9h4.2v7.9zM267 44.6v-7.9h4.2v7.9zM273.2 44.6v-7.9h.5v7.9zm1.2 0v-7.9h.5v7.9zM283.5 36.8V41h2.4v.5H283v-4.8h.5zm1.1 3.2h1.3v.5h-1.8v-3.8h.5zM286.6 44.6v-7.9h4.2v7.9zM291.5 44.6v-7.9h4.2v7.9zM296.5 44.6v-7.9h4.2v7.9zM303.1 44.6h-.5V40h2.9v.5h-2.4zm1.1-3.1v3.1h-.5V41h1.8v.5zM308.6 36.8h.5v4.8h-2.9V41h2.4zm-1.1 3.2v-3.2h.5v3.8h-1.8V40zM86 53v-7.9h4.2V53zM90.9 53v-7.9h4.2V53zM97.1 53v-7.9h.5V53zm1.1 0v-7.9h.5V53zM102.5 45.1v4.3h2.4v.5H102v-4.8zm1.1 3.2h1.3v.5h-1.8V45h.5zM105.6 53v-7.9h4.2V53zM110.4 53v-7.9h4.2V53zM117.2 53h-.5v-4.7h2.9v.5h-2.4zm1-3v3h-.5v-3.6h1.8v.5zM122.7 45.1h.5v4.8h-2.9v-.5h2.4zm-1.1 3.2v-3.2h.5v3.8h-1.8v-.5h1.3zM125.2 53v-7.9h4.2V53zM130.1 53v-7.9h4.2V53zM136.2 53v-7.9h.5V53zm1.2 0v-7.9h.5V53zM139.9 53v-7.9h4.2V53zM144.7 53v-7.9h4.2V53zM151.4 53h-.5v-4.7h2.9v.5h-2.4zm1.1-3v3h-.5v-3.6h1.8v.5zM158.7 48.8h-4.2v-.5h4.2zm0 1.2h-4.2v-.5h4.2zM163.6 48.8h-4.2v-.5h4.2zm0 1.2h-4.2v-.5h4.2zM164.3 53v-7.9h4.2V53zM169.2 53v-7.9h4.2V53zM175.4 53v-7.9h.5V53zm1.1 0v-7.9h.5V53zM193.6 53v-7.9h4.2V53zM198.6 53v-7.9h4.2V53zM204.8 53v-7.9h.5V53zm1.1 0v-7.9h.5V53zM223 53v-7.9h4.2V53zM227.9 53v-7.9h4.2V53zM234.6 53h-.5v-4.7h2.9v.5h-2.4zm1.1-3v3h-.5v-3.6h1.8v.5zM241.9 48.8h-4.2v-.5h4.2zm0 1.2h-4.2v-.5h4.2zM246.8 48.8h-4.2v-.5h4.2zm0 1.2h-4.2v-.5h4.2zM247.5 53v-7.9h4.2V53zM252.4 53v-7.9h4.2V53zM259.6 53v-4.2h-2.4v-.5h2.9V53zm-1-3h-1.3v-.5h1.8V53h-.5zM262.1 53v-7.9h4.2V53zM267 53v-7.9h4.2V53zM273.2 53v-7.9h.5V53zm1.2 0v-7.9h.5V53zM281.8 53v-7.9h4.2V53zM286.6 53v-7.9h4.2V53zM293.4 53h-.5v-4.7h2.9v.5h-2.4zm1.1-3v3h-.5v-3.6h1.8v.5zM296.5 53v-7.9h4.2V53zM301.3 53v-7.9h4.2V53zM308.6 53v-4.2h-2.4v-.5h2.9V53zm-1.1-3h-1.3v-.5h1.8V53h-.5zM86 61.4v-7.9h4.2v7.9zM90.9 61.4v-7.9h4.2v7.9zM97.1 61.4v-7.9h.5v7.9zm1.1 0v-7.9h.5v7.9zM107.3 53.5v4.3h2.4v.5h-2.9v-4.8zm1.1 3.2h1.3v.5h-1.8v-3.7h.5zM114.7 57.2h-4.2v-.5h4.2zm0 1.1h-4.2v-.5h4.2zM117.8 53.5h.5v4.8h-2.9v-.5h2.4zm-1.1 3.2v-3.2h.5v3.8h-1.8v-.5zM125.2 61.4v-7.9h4.2v7.9zM130.1 61.4v-7.9h4.2v7.9zM136.2 61.4v-7.9h.5v7.9zm1.2 0v-7.9h.5v7.9zM139.9 61.4v-7.9h4.2v7.9zM144.7 61.4v-7.9h4.2v7.9zM150.9 61.4v-7.9h.5v7.9zm1.1 0v-7.9h.5v7.9zM164.3 61.4v-7.9h4.2v7.9zM169.2 61.4v-7.9h4.2v7.9zM175.4 61.4v-7.9h.5v7.9zm1.1 0v-7.9h.5v7.9zM193.6 61.4v-7.9h4.2v7.9zM198.6 61.4v-7.9h4.2v7.9zM204.8 61.4v-7.9h.5v7.9zm1.1 0v-7.9h.5v7.9zM223 61.4v-7.9h4.2v7.9zM227.9 61.4v-7.9h4.2v7.9zM234.1 61.4v-7.9h.5v7.9zm1.1 0v-7.9h.5v7.9zM247.5 61.4v-7.9h4.2v7.9zM252.4 61.4v-7.9h4.2v7.9zM258.6 61.4v-7.9h.5v7.9zm1 0v-7.9h.5v7.9zM262.1 61.4v-7.9h4.2v7.9zM267 61.4v-7.9h4.2v7.9zM273.2 61.4v-7.9h.5v7.9zm1.2 0v-7.9h.5v7.9zM276.9 61.4v-7.9h4.2v7.9zM281.8 61.4v-7.9h4.2v7.9zM288.5 61.4h-.5v-4.7h2.9v.5h-2.4zm1-3.1v3.1h-.5v-3.6h1.8v.5zM293.9 53.5h.5v4.8h-2.9v-.5h2.4zm-1 3.2v-3.2h.5v3.8h-1.8v-.5zM301.3 61.4v-7.9h4.2v7.9zM306.2 61.4v-7.9h4.2v7.9zM313.5 61.4v-4.2h-2.4v-.5h2.9v4.7zm-1.1-3.1h-1.3v-.5h1.8v3.6h-.5zM87.8 61.8v4.3h2.4v.5h-2.9v-4.8zm1.1 3.3h1.3v.5h-1.8v-3.8h.5zM95.1 65.6h-4.2v-.5h4.2zm0 1.1h-4.2v-.5h4.2zM98.2 61.8h.5v4.8h-2.9v-.5h2.4zm-1.1 3.3v-3.2h.5v3.8h-1.8v-.5h1.3zM126.9 61.8v4.3h2.4v.5h-2.9v-4.8zm1.2 3.3h1.3v.5h-1.8v-3.8h.5zM134.2 65.6H130v-.5h4.2zm0 1.1H130v-.5h4.2zM137.4 61.8h.5v4.8H135v-.5h2.4zm-1.2 3.3v-3.2h.5v3.8h-1.8v-.5h1.3zM141.6 61.8v4.3h2.4v.5h-2.9v-4.8zm1.1 3.3h1.3v.5h-1.8v-3.8h.5zM148.9 65.6h-4.2v-.5h4.2zm0 1.1h-4.2v-.5h4.2zM152 61.8h.5v4.8h-2.9v-.5h2.4zm-1.1 3.3v-3.2h.5v3.8h-1.8v-.5h1.3zM166.1 61.8v4.3h2.4v.5h-2.9v-4.8zm1.1 3.3h1.3v.5h-1.8v-3.8h.5zM173.4 65.6h-4.2v-.5h4.2zm0 1.1h-4.2v-.5h4.2zM176.5 61.8h.5v4.8h-2.9v-.5h2.4zm-1.1 3.3v-3.2h.5v3.8h-1.8v-.5h1.3zM195.4 61.8v4.3h2.4v.5h-2.9v-4.8zm1.2 3.3h1.3v.5h-1.8v-3.8h.5zM202.8 65.6h-4.2v-.5h4.2zm0 1.1h-4.2v-.5h4.2zM205.9 61.8h.5v4.8h-2.9v-.5h2.4zm-1.1 3.3v-3.2h.5v3.8h-1.8v-.5h1.3zM224.8 61.8v4.3h2.4v.5h-2.9v-4.8zm1.1 3.3h1.3v.5h-1.8v-3.8h.5zM232.1 65.6h-4.2v-.5h4.2zm0 1.1h-4.2v-.5h4.2zM235.2 61.8h.5v4.8h-2.9v-.5h2.4zm-1.1 3.3v-3.2h.5v3.8h-1.8v-.5h1.3zM249.3 61.8v4.3h2.4v.5h-2.9v-4.8zm1.1 3.3h1.3v.5h-1.8v-3.8h.5zM256.5 65.6h-4.2v-.5h4.2zm0 1.1h-4.2v-.5h4.2zM259.6 61.8h.5v4.8h-2.9v-.5h2.4zm-1 3.3v-3.2h.5v3.8h-1.8v-.5h1.3zM264 61.8v4.3h2.4v.5h-2.9v-4.8zm1 3.3h1.3v.5h-1.8v-3.8h.5zM271.2 65.6H267v-.5h4.2zm0 1.1H267v-.5h4.2zM274.4 61.8h.5v4.8H272v-.5h2.4zm-1.2 3.3v-3.2h.5v3.8H272v-.5h1.2zM278.6 61.8v4.3h2.4v.5h-2.9v-4.8zm1.2 3.3h1.3v.5h-1.8v-3.8h.5zM286 65.6h-4.2v-.5h4.2zm0 1.1h-4.2v-.5h4.2zM289 61.8h.5v4.8h-2.9v-.5h2.4zm-1 3.3v-3.2h.5v3.8h-1.8v-.5h1.3zM303.1 61.8v4.3h2.4v.5h-2.9v-4.8zm1.1 3.3h1.3v.5h-1.8v-3.8h.5zM310.4 65.6h-4.2v-.5h4.2zm0 1.1h-4.2v-.5h4.2zM313.5 61.8h.5v4.8h-2.9v-.5h2.4zm-1.1 3.3v-3.2h.5v3.8h-1.8v-.5h1.3zM86 86.5v-7.9h4.2v7.9zM90.9 86.5v-7.9h4.2v7.9zM95.8 86.5v-7.9h4.2v7.9zM103.1 86.5v-4.2h-2.4v-.5h2.9v4.7zm-1.1-3.1h-1.3v-.5h1.8v3.6h-.5zM120.2 86.5v-7.9h4.2v7.9zM125.2 86.5v-7.9h4.2v7.9zM132.4 86.5v-4.2H130v-.5h2.9v4.7zm-1-3.1h-1.3v-.5h1.8v3.6h-.5zM134.9 86.5v-7.9h4.2v7.9zM139.9 86.5v-7.9h4.2v7.9zM144.7 86.5v-7.9h4.2v7.9zM149.6 86.5v-7.9h4.2v7.9zM154.5 86.5v-7.9h4.2v7.9zM159.4 86.5v-7.9h4.2v7.9zM164.3 86.5v-7.9h4.2v7.9zM171.6 86.5v-4.2h-2.4v-.5h2.9v4.7zm-1.1-3.1h-1.3v-.5h1.8v3.6h-.5zM179 86.5v-7.9h4.2v7.9zM183.9 86.5v-7.9h4.2v7.9zM188.8 86.5v-7.9h4.2v7.9zM193.6 86.5v-7.9h4.2v7.9zM198.6 86.5v-7.9h4.2v7.9zM203.4 86.5v-7.9h4.2v7.9zM210.8 86.5v-4.2h-2.4v-.5h2.9v4.7zm-1.2-3.1h-1.3v-.5h1.8v3.6h-.5zM86 94.9V87h4.2v7.9zM90.9 94.9V87h4.2v7.9zM95.8 94.9V87h4.2v7.9zM100.7 94.9V87h4.2v7.9zM107.9 94.9v-4.2h-2.4v-.5h2.9v4.7zm-1.1-3.1h-1.3v-.5h1.8v3.6h-.5zM120.2 94.9V87h4.2v7.9zM125.2 94.9V87h4.2v7.9zM131.4 94.9V87h.5v7.9zm1 0V87h.5v7.9zM134.9 94.9V87h4.2v7.9zM139.9 94.9V87h4.2v7.9zM146.5 94.9h-.5v-4.7h2.9v.5h-2.4zm1.1-3.1v3.1h-.5v-3.6h1.8v.5zM153.8 90.7h-4.2v-.5h4.2zm0 1.1h-4.2v-.5h4.2zM158.7 90.7h-4.2v-.5h4.2zm0 1.1h-4.2v-.5h4.2zM163.6 90.7h-4.2v-.5h4.2zm0 1.1h-4.2v-.5h4.2zM168.5 90.7h-4.2v-.5h4.2zm0 1.1h-4.2v-.5h4.2zM171.6 87h.5v4.8h-2.9v-.5h2.4zm-1.1 3.2V87h.5v3.8h-1.8v-.5zM174.1 94.9V87h4.2v7.9zM179 94.9V87h4.2v7.9zM185.6 94.9h-.5v-4.7h2.9v.5h-2.4zm1.2-3.1v3.1h-.5v-3.6h1.8v.5zM192.9 90.7h-4.2v-.5h4.2zm0 1.1h-4.2v-.5h4.2zM197.9 90.7h-4.2v-.5h4.2zm0 1.1h-4.2v-.5h4.2zM202.8 90.7h-4.2v-.5h4.2zm0 1.1h-4.2v-.5h4.2zM203.4 94.9V87h4.2v7.9zM208.4 94.9V87h4.2v7.9zM215.6 94.9v-4.2h-2.4v-.5h2.9v4.7zm-1-3.1h-1.3v-.5h1.8v3.6h-.5zM86 103.2v-7.9h4.2v7.9zM90.9 103.2v-7.9h4.2v7.9zM97.6 103.2h-.5v-4.7h2.9v.5h-2.4zm1.1-3v3.1h-.5v-3.6h1.8v.5zM100.7 103.2v-7.9h4.2v7.9zM105.6 103.2v-7.9h4.2v7.9zM112.8 103.2V99h-2.4v-.5h2.9v4.7zm-1-3h-1.3v-.5h1.8v3.6h-.5zM120.2 103.2v-7.9h4.2v7.9zM125.2 103.2v-7.9h4.2v7.9zM131.4 103.2v-7.9h.5v7.9zm1 0v-7.9h.5v7.9zM134.9 103.2v-7.9h4.2v7.9zM139.9 103.2v-7.9h4.2v7.9zM144.7 103.2v-7.9h4.2v7.9zM149.6 103.2v-7.9h4.2v7.9zM154.5 103.2v-7.9h4.2v7.9zM161.8 103.2V99h-2.4v-.5h2.9v4.7zm-1.1-3h-1.3v-.5h1.8v3.6h-.5zM174.1 103.2v-7.9h4.2v7.9zM179 103.2v-7.9h4.2v7.9zM185.1 103.2v-7.9h.5v7.9zm1.1 0v-7.9h.5v7.9zM203.4 103.2v-7.9h4.2v7.9zM208.4 103.2v-7.9h4.2v7.9zM214.6 103.2v-7.9h.5v7.9zm1 0v-7.9h.5v7.9zM86 111.7v-7.9h4.2v7.9zM90.9 111.7v-7.9h4.2v7.9zM97.1 111.7v-7.9h.5v7.9zm1.1 0v-7.9h.5v7.9zM102.5 103.7v4.3h2.4v.5H102v-4.8zm1.1 3.2h1.3v.5h-1.8v-3.8h.5zM105.6 111.7v-7.9h4.2v7.9zM110.4 111.7v-7.9h4.2v7.9zM117.8 111.7v-4.2h-2.4v-.5h2.9v4.7zm-1.1-3.1h-1.3v-.5h1.8v3.6h-.5zM120.2 111.7v-7.9h4.2v7.9zM125.2 111.7v-7.9h4.2v7.9zM131.4 111.7v-7.9h.5v7.9zm1 0v-7.9h.5v7.9zM134.9 111.7v-7.9h4.2v7.9zM139.9 111.7v-7.9h4.2v7.9zM146.5 111.7h-.5V107h2.9v.5h-2.4zm1.1-3.1v3.1h-.5v-3.6h1.8v.5zM153.8 107.4h-4.2v-.5h4.2zm0 1.2h-4.2v-.5h4.2zM158.7 107.4h-4.2v-.5h4.2zm0 1.2h-4.2v-.5h4.2zM161.8 103.7h.5v4.8h-2.9v-.5h2.4zm-1.1 3.2v-3.2h.5v3.8h-1.8v-.5h1.3zM174.1 111.7v-7.9h4.2v7.9zM179 111.7v-7.9h4.2v7.9zM185.1 111.7v-7.9h.5v7.9zm1.1 0v-7.9h.5v7.9zM203.4 111.7v-7.9h4.2v7.9zM208.4 111.7v-7.9h4.2v7.9zM214.6 111.7v-7.9h.5v7.9zm1 0v-7.9h.5v7.9zM86 120v-7.9h4.2v7.9zM90.9 120v-7.9h4.2v7.9zM97.1 120v-7.9h.5v7.9zm1.1 0v-7.9h.5v7.9zM107.3 112.1v4.3h2.4v.5h-2.9v-4.8zm1.1 3.2h1.3v.5h-1.8V112h.5zM110.4 120v-7.9h4.2v7.9zM115.3 120v-7.9h4.2v7.9zM120.2 120v-7.9h4.2v7.9zM125.2 120v-7.9h4.2v7.9zM131.4 120v-7.9h.5v7.9zm1 0v-7.9h.5v7.9zM134.9 120v-7.9h4.2v7.9zM139.9 120v-7.9h4.2v7.9zM144.7 120v-7.9h4.2v7.9zM149.6 120v-7.9h4.2v7.9zM154.5 120v-7.9h4.2v7.9zM159.4 120v-7.9h4.2v7.9zM164.3 120v-7.9h4.2v7.9zM171.6 120v-4.2h-2.4v-.5h2.9v4.7zm-1.1-3.1h-1.3v-.5h1.8v3.6h-.5zM175.9 112.1v4.3h2.4v.5h-2.9v-4.8zm1.1 3.2h1.3v.5h-1.8V112h.5zM179 120v-7.9h4.2v7.9zM183.9 120v-7.9h4.2v7.9zM188.8 120v-7.9h4.2v7.9zM193.6 120v-7.9h4.2v7.9zM198.6 120v-7.9h4.2v7.9zM203.4 120v-7.9h4.2v7.9zM210.1 120h-.5v-4.7h2.9v.5h-2.4zm1.1-3.1v3.1h-.5v-3.6h1.8v.5zM215.6 112.1h.5v4.8h-2.9v-.5h2.4zm-1 3.2v-3.2h.5v3.8h-1.8v-.5h1.3z" class="st0"/></svg>