<svg xmlns="http://www.w3.org/2000/svg" xml:space="preserve" viewBox="0 0 400 200"><style>.st0{fill:#164f87}</style><path d="M86 57.9V50h4.2v7.9zM90.9 57.9V50h4.2v7.9zM95.8 57.9V50h4.2v7.9zM103 57.9v-4.2h-2.4v-.5h2.9v4.7zm-1-3.1h-1.3v-.5h1.8v3.6h-.5zM120.2 57.9V50h4.2v7.9zM125.2 57.9V50h4.2v7.9zM130.1 57.9V50h4.2v7.9zM137.4 57.9v-4.2H135v-.5h2.9v4.7zm-1.2-3.1h-1.3v-.5h1.8v3.6h-.5zM144.7 57.9V50h4.2v7.9zM149.6 57.9V50h4.2v7.9zM154.5 57.9V50h4.2v7.9zM159.4 57.9V50h4.2v7.9zM164.3 57.9V50h4.2v7.9zM171.6 57.9v-4.2h-2.4v-.5h2.9v4.7zm-1.1-3.1h-1.3v-.5h1.8v3.6h-.5zM179 57.9V50h4.2v7.9zM183.8 57.9V50h4.2v7.9zM188.8 57.9V50h4.2v7.9zM193.6 57.9V50h4.2v7.9zM198.6 57.9V50h4.2v7.9zM203.4 57.9V50h4.2v7.9zM208.4 57.9V50h4.2v7.9zM213.2 57.9V50h4.2v7.9zM220.5 57.9v-4.2h-2.4v-.5h2.9v4.7zm-1.1-3.1h-1.3v-.5h1.8v3.6h-.5zM223 57.9V50h4.2v7.9zM227.9 57.9V50h4.2v7.9zM232.8 57.9V50h4.2v7.9zM237.7 57.9V50h4.2v7.9zM242.6 57.9V50h4.2v7.9zM247.5 57.9V50h4.2v7.9zM254.8 57.9v-4.2h-2.4v-.5h2.9v4.7zm-1.1-3.1h-1.3v-.5h1.8v3.6h-.5zM262.1 57.9V50h4.2v7.9zM267 57.9V50h4.2v7.9zM274.4 57.9v-4.2H272v-.5h2.9v4.7zm-1.2-3.1H272v-.5h1.8v3.6h-.5v-3.1zM276.9 57.9V50h4.2v7.9zM281.8 57.9V50h4.2v7.9zM289 57.9v-4.2h-2.4v-.5h2.9v4.7zm-1-3.1h-1.3v-.5h1.8v3.6h-.5zM301.3 57.9V50h4.2v7.9zM306.2 57.9V50h4.2v7.9zM313.5 57.9v-4.2h-2.4v-.5h2.9v4.7zm-1.1-3.1h-1.3v-.5h1.8v3.6h-.5zM86 66.3v-7.9h4.2v7.9zM90.9 66.3v-7.9h4.2v7.9zM95.8 66.3v-7.9h4.2v7.9zM100.7 66.3v-7.9h4.2v7.9zM107.9 66.3v-4.1h-2.4v-.5h2.9v4.6zm-1.1-3.1h-1.3v-.5h1.8v3.6h-.5zM115.3 66.3v-7.9h4.2v7.9zM120.2 66.3v-7.9h4.2v7.9zM125.2 66.3v-7.9h4.2v7.9zM130.1 66.3v-7.9h4.2v7.9zM136.2 66.3v-7.9h.5v7.9zm1.2 0v-7.9h.5v7.9zM139.9 66.3v-7.9h4.2v7.9zM144.7 66.3v-7.9h4.2v7.9zM151.4 66.3h-.5v-4.6h2.9v.5h-2.4zm1.1-3.1v3.1h-.5v-3.6h1.8v.5zM158.7 62.1h-4.2v-.5h4.2zm0 1.1h-4.2v-.5h4.2zM163.6 62.1h-4.2v-.5h4.2zm0 1.1h-4.2v-.5h4.2zM164.3 66.3v-7.9h4.2v7.9zM169.2 66.3v-7.9h4.2v7.9zM176.5 66.3v-4.1h-2.4v-.5h2.9v4.6zm-1.1-3.1h-1.3v-.5h1.8v3.6h-.5zM180.8 58.3v4.3h2.4v.5h-2.9v-4.8zm1 3.3h1.3v.5h-1.8v-3.8h.5zM188.1 62.1h-4.2v-.5h4.2zm0 1.1h-4.2v-.5h4.2zM192.9 62.1h-4.2v-.5h4.2zm0 1.1h-4.2v-.5h4.2zM193.6 66.3v-7.9h4.2v7.9zM198.6 66.3v-7.9h4.2v7.9zM205.2 66.3h-.5v-4.6h2.9v.5h-2.4zm1.2-3.1v3.1h-.5v-3.6h1.8v.5zM212.6 62.1h-4.2v-.5h4.2zm0 1.1h-4.2v-.5h4.2zM217.4 62.1h-4.2v-.5h4.2zm0 1.1h-4.2v-.5h4.2zM220.5 58.3h.5v4.8h-2.9v-.5h2.4zm-1.1 3.3v-3.2h.5v3.8h-1.8v-.5h1.3zM223 66.3v-7.9h4.2v7.9zM227.9 66.3v-7.9h4.2v7.9zM234.6 66.3h-.5v-4.6h2.9v.5h-2.4zm1.1-3.1v3.1h-.5v-3.6h1.8v.5zM241.9 62.1h-4.2v-.5h4.2zm0 1.1h-4.2v-.5h4.2zM246.8 62.1h-4.2v-.5h4.2zm0 1.1h-4.2v-.5h4.2zM247.5 66.3v-7.9h4.2v7.9zM252.4 66.3v-7.9h4.2v7.9zM259.6 66.3v-4.1h-2.4v-.5h2.9v4.6zm-1-3.1h-1.3v-.5h1.8v3.6h-.5zM262.1 66.3v-7.9h4.2v7.9zM267 66.3v-7.9h4.2v7.9zM273.2 66.3v-7.9h.5v7.9zm1.2 0v-7.9h.5v7.9zM278.6 58.3v4.3h2.4v.5h-2.9v-4.8zm1.2 3.3h1.3v.5h-1.8v-3.8h.5zM281.8 66.3v-7.9h4.2v7.9zM286.6 66.3v-7.9h4.2v7.9zM293.9 66.3v-4.1h-2.4v-.5h2.9v4.6zm-1-3.1h-1.3v-.5h1.8v3.6h-.5zM296.5 66.3v-7.9h4.2v7.9zM301.3 66.3v-7.9h4.2v7.9zM308 66.3h-.5v-4.6h2.9v.5H308zm1.1-3.1v3.1h-.5v-3.6h1.8v.5zM313.5 58.3h.5v4.8h-2.9v-.5h2.4zm-1.1 3.3v-3.2h.5v3.8h-1.8v-.5h1.3zM86 74.7v-7.9h4.2v7.9zM90.9 74.7v-7.9h4.2v7.9zM97.6 74.7h-.5V70h2.9v.5h-2.4zm1.1-3.1v3.1h-.5V71h1.8v.5h-1.3zM100.7 74.7v-7.9h4.2v7.9zM105.5 74.7v-7.9h4.2v7.9zM110.4 74.7v-7.9h4.2v7.9zM115.3 74.7v-7.9h4.2v7.9zM122.1 74.7h-.5V70h2.9v.5h-2.4zm1.1-3.1v3.1h-.5V71h1.8v.5h-1.3zM125.2 74.7v-7.9h4.2v7.9zM130.1 74.7v-7.9h4.2v7.9zM136.2 74.7v-7.9h.5v7.9zm1.2 0v-7.9h.5v7.9zM139.9 74.7v-7.9h4.2v7.9zM144.7 74.7v-7.9h4.2v7.9zM149.6 74.7v-7.9h4.2v7.9zM154.5 74.7v-7.9h4.2v7.9zM159.4 74.7v-7.9h4.2v7.9zM164.3 74.7v-7.9h4.2v7.9zM169.2 74.7v-7.9h4.2v7.9zM175.4 74.7v-7.9h.5v7.9zm1.1 0v-7.9h.5v7.9zM193.6 74.7v-7.9h4.2v7.9zM198.6 74.7v-7.9h4.2v7.9zM204.8 74.7v-7.9h.5v7.9zm1.1 0v-7.9h.5v7.9zM223 74.7v-7.9h4.2v7.9zM227.9 74.7v-7.9h4.2v7.9zM232.8 74.7v-7.9h4.2v7.9zM237.7 74.7v-7.9h4.2v7.9zM242.6 74.7v-7.9h4.2v7.9zM247.5 74.7v-7.9h4.2v7.9zM254.2 74.7h-.5V70h2.9v.5h-2.4zm1.1-3.1v3.1h-.5V71h1.8v.5h-1.3zM259.6 66.8h.5v4.8h-2.9V71h2.4zm-1 3.1v-3.2h.5v3.8h-1.8V70h1.3zM262.1 74.7v-7.9h4.2v7.9zM267 74.7v-7.9h4.2v7.9zM273.2 74.7v-7.9h.5v7.9zm1.2 0v-7.9h.5v7.9zM283.5 66.8V71h2.4v.5H283v-4.8h.5zm1.1 3.1h1.3v.5h-1.8v-3.8h.5zM286.6 74.7v-7.9h4.2v7.9zM291.5 74.7v-7.9h4.2v7.9zM296.5 74.7v-7.9h4.2v7.9zM303.1 74.7h-.5V70h2.9v.5h-2.4zm1.1-3.1v3.1h-.5V71h1.8v.5h-1.3zM308.6 66.8h.5v4.8h-2.9V71h2.4zm-1.1 3.1v-3.2h.5v3.8h-1.8V70h1.3zM86 83v-7.9h4.2V83zM90.9 83v-7.9h4.2V83zM97.1 83v-7.9h.5V83zm1.1 0v-7.9h.5V83zM102.5 75.1v4.3h2.4v.5H102v-4.8zm1 3.2h1.3v.5H103V75h.5zM105.5 83v-7.9h4.2V83zM110.4 83v-7.9h4.2V83zM117.2 83h-.5v-4.7h2.9v.5h-2.4zm1-3.1V83h-.5v-3.6h1.8v.5zM122.7 75.1h.5v4.8h-2.9v-.5h2.4zm-1.1 3.2v-3.2h.5v3.8h-1.8v-.5h1.3zM125.2 83v-7.9h4.2V83zM130.1 83v-7.9h4.2V83zM136.2 83v-7.9h.5V83zm1.2 0v-7.9h.5V83zM139.9 83v-7.9h4.2V83zM144.7 83v-7.9h4.2V83zM151.4 83h-.5v-4.7h2.9v.5h-2.4zm1.1-3.1V83h-.5v-3.6h1.8v.5zM158.7 78.8h-4.2v-.5h4.2zm0 1.1h-4.2v-.5h4.2zM163.6 78.8h-4.2v-.5h4.2zm0 1.1h-4.2v-.5h4.2zM164.3 83v-7.9h4.2V83zM169.2 83v-7.9h4.2V83zM175.4 83v-7.9h.5V83zm1.1 0v-7.9h.5V83zM193.6 83v-7.9h4.2V83zM198.6 83v-7.9h4.2V83zM204.8 83v-7.9h.5V83zm1.1 0v-7.9h.5V83zM223 83v-7.9h4.2V83zM227.9 83v-7.9h4.2V83zM234.6 83h-.5v-4.7h2.9v.5h-2.4zm1.1-3.1V83h-.5v-3.6h1.8v.5zM241.9 78.8h-4.2v-.5h4.2zm0 1.1h-4.2v-.5h4.2zM246.8 78.8h-4.2v-.5h4.2zm0 1.1h-4.2v-.5h4.2zM247.5 83v-7.9h4.2V83zM252.4 83v-7.9h4.2V83zM259.6 83v-4.2h-2.4v-.5h2.9V83zm-1-3.1h-1.3v-.5h1.8V83h-.5zM262.1 83v-7.9h4.2V83zM267 83v-7.9h4.2V83zM273.2 83v-7.9h.5V83zm1.2 0v-7.9h.5V83zM281.8 83v-7.9h4.2V83zM286.6 83v-7.9h4.2V83zM293.4 83h-.5v-4.7h2.9v.5h-2.4zm1.1-3.1V83h-.5v-3.6h1.8v.5zM296.5 83v-7.9h4.2V83zM301.3 83v-7.9h4.2V83zM308.6 83v-4.2h-2.4v-.5h2.9V83zm-1.1-3.1h-1.3v-.5h1.8V83h-.5zM86 91.4v-7.9h4.2v7.9zM90.9 91.4v-7.9h4.2v7.9zM97.1 91.4v-7.9h.5v7.9zm1.1 0v-7.9h.5v7.9zM107.3 83.5v4.3h2.4v.5h-2.9v-4.8zm1.1 3.2h1.3v.5h-1.8v-3.7h.5zM114.7 87.2h-4.2v-.5h4.2zm0 1.1h-4.2v-.5h4.2zM117.8 83.5h.5v4.8h-2.9v-.5h2.4zm-1.1 3.2v-3.2h.5v3.8h-1.8v-.5zM125.2 91.4v-7.9h4.2v7.9zM130.1 91.4v-7.9h4.2v7.9zM136.2 91.4v-7.9h.5v7.9zm1.2 0v-7.9h.5v7.9zM139.9 91.4v-7.9h4.2v7.9zM144.7 91.4v-7.9h4.2v7.9zM150.9 91.4v-7.9h.5v7.9zm1.1 0v-7.9h.5v7.9zM164.3 91.4v-7.9h4.2v7.9zM169.2 91.4v-7.9h4.2v7.9zM175.4 91.4v-7.9h.5v7.9zm1.1 0v-7.9h.5v7.9zM193.6 91.4v-7.9h4.2v7.9zM198.6 91.4v-7.9h4.2v7.9zM204.8 91.4v-7.9h.5v7.9zm1.1 0v-7.9h.5v7.9zM223 91.4v-7.9h4.2v7.9zM227.9 91.4v-7.9h4.2v7.9zM234.1 91.4v-7.9h.5v7.9zm1.1 0v-7.9h.5v7.9zM247.5 91.4v-7.9h4.2v7.9zM252.4 91.4v-7.9h4.2v7.9zM258.6 91.4v-7.9h.5v7.9zm1 0v-7.9h.5v7.9zM262.1 91.4v-7.9h4.2v7.9zM267 91.4v-7.9h4.2v7.9zM273.2 91.4v-7.9h.5v7.9zm1.2 0v-7.9h.5v7.9zM276.9 91.4v-7.9h4.2v7.9zM281.8 91.4v-7.9h4.2v7.9zM288.5 91.4h-.5v-4.7h2.9v.5h-2.4zm1-3.1v3.1h-.5v-3.6h1.8v.5zM293.9 83.5h.5v4.8h-2.9v-.5h2.4zm-1 3.2v-3.2h.5v3.8h-1.8v-.5zM301.3 91.4v-7.9h4.2v7.9zM306.2 91.4v-7.9h4.2v7.9zM313.5 91.4v-4.2h-2.4v-.5h2.9v4.7zm-1.1-3.1h-1.3v-.5h1.8v3.6h-.5zM87.8 91.8v4.3h2.4v.5h-2.9v-4.8zm1.1 3.3h1.3v.5h-1.8v-3.8h.5zM95.1 95.6h-4.2v-.5h4.2zm0 1.1h-4.2v-.5h4.2zM98.2 91.8h.5v4.8h-2.9v-.5h2.4zm-1.1 3.3v-3.2h.5v3.8h-1.8v-.5h1.3zM126.9 91.8v4.3h2.4v.5h-2.9v-4.8zm1.2 3.3h1.3v.5h-1.8v-3.8h.5zM134.2 95.6H130v-.5h4.2zm0 1.1H130v-.5h4.2zM137.4 91.8h.5v4.8H135v-.5h2.4zm-1.2 3.3v-3.2h.5v3.8h-1.8v-.5h1.3zM141.6 91.8v4.3h2.4v.5h-2.9v-4.8zm1.1 3.3h1.3v.5h-1.8v-3.8h.5zM148.9 95.6h-4.2v-.5h4.2zm0 1.1h-4.2v-.5h4.2zM152 91.8h.5v4.8h-2.9v-.5h2.4zm-1.1 3.3v-3.2h.5v3.8h-1.8v-.5h1.3zM166.1 91.8v4.3h2.4v.5h-2.9v-4.8zm1.1 3.3h1.3v.5h-1.8v-3.8h.5zM173.4 95.6h-4.2v-.5h4.2zm0 1.1h-4.2v-.5h4.2zM176.5 91.8h.5v4.8h-2.9v-.5h2.4zm-1.1 3.3v-3.2h.5v3.8h-1.8v-.5h1.3zM195.4 91.8v4.3h2.4v.5h-2.9v-4.8zm1.2 3.3h1.3v.5h-1.8v-3.8h.5zM202.8 95.6h-4.2v-.5h4.2zm0 1.1h-4.2v-.5h4.2zM205.9 91.8h.5v4.8h-2.9v-.5h2.4zm-1.1 3.3v-3.2h.5v3.8h-1.8v-.5h1.3zM224.8 91.8v4.3h2.4v.5h-2.9v-4.8zm1.1 3.3h1.3v.5h-1.8v-3.8h.5zM232.1 95.6h-4.2v-.5h4.2zm0 1.1h-4.2v-.5h4.2zM235.2 91.8h.5v4.8h-2.9v-.5h2.4zm-1.1 3.3v-3.2h.5v3.8h-1.8v-.5h1.3zM249.3 91.8v4.3h2.4v.5h-2.9v-4.8zm1.1 3.3h1.3v.5h-1.8v-3.8h.5zM256.5 95.6h-4.2v-.5h4.2zm0 1.1h-4.2v-.5h4.2zM259.6 91.8h.5v4.8h-2.9v-.5h2.4zm-1 3.3v-3.2h.5v3.8h-1.8v-.5h1.3zM264 91.8v4.3h2.4v.5h-2.9v-4.8zm1 3.3h1.3v.5h-1.8v-3.8h.5zM271.2 95.6H267v-.5h4.2zm0 1.1H267v-.5h4.2zM274.4 91.8h.5v4.8H272v-.5h2.4zm-1.2 3.3v-3.2h.5v3.8H272v-.5h1.2zM278.6 91.8v4.3h2.4v.5h-2.9v-4.8zm1.2 3.3h1.3v.5h-1.8v-3.8h.5zM286 95.6h-4.2v-.5h4.2zm0 1.1h-4.2v-.5h4.2zM289 91.8h.5v4.8h-2.9v-.5h2.4zm-1 3.3v-3.2h.5v3.8h-1.8v-.5h1.3zM303.1 91.8v4.3h2.4v.5h-2.9v-4.8zm1.1 3.3h1.3v.5h-1.8v-3.8h.5zM310.4 95.6h-4.2v-.5h4.2zm0 1.1h-4.2v-.5h4.2zM313.5 91.8h.5v4.8h-2.9v-.5h2.4zm-1.1 3.3v-3.2h.5v3.8h-1.8v-.5h1.3zM86 116.5v-7.9h4.2v7.9zM90.9 116.5v-7.9h4.2v7.9zM95.8 116.5v-7.9h4.2v7.9zM103 116.5v-4.2h-2.4v-.5h2.9v4.7zm-1-3.1h-1.3v-.5h1.8v3.6h-.5zM120.2 116.5v-7.9h4.2v7.9zM125.2 116.5v-7.9h4.2v7.9zM132.4 116.5v-4.2H130v-.5h2.9v4.7zm-1.1-3.1H130v-.5h1.8v3.6h-.5zM134.9 116.5v-7.9h4.2v7.9zM139.9 116.5v-7.9h4.2v7.9zM144.7 116.5v-7.9h4.2v7.9zM149.6 116.5v-7.9h4.2v7.9zM154.5 116.5v-7.9h4.2v7.9zM159.4 116.5v-7.9h4.2v7.9zM164.3 116.5v-7.9h4.2v7.9zM171.6 116.5v-4.2h-2.4v-.5h2.9v4.7zm-1.1-3.1h-1.3v-.5h1.8v3.6h-.5zM179 116.5v-7.9h4.2v7.9zM183.8 116.5v-7.9h4.2v7.9zM188.8 116.5v-7.9h4.2v7.9zM193.6 116.5v-7.9h4.2v7.9zM198.6 116.5v-7.9h4.2v7.9zM203.4 116.5v-7.9h4.2v7.9zM210.8 116.5v-4.2h-2.4v-.5h2.9v4.7zm-1.2-3.1h-1.3v-.5h1.8v3.6h-.5zM86 124.9V117h4.2v7.9zM90.9 124.9V117h4.2v7.9zM95.8 124.9V117h4.2v7.9zM100.7 124.9V117h4.2v7.9zM107.9 124.9v-4.2h-2.4v-.5h2.9v4.7zm-1.1-3.1h-1.3v-.5h1.8v3.6h-.5zM120.2 124.9V117h4.2v7.9zM125.2 124.9V117h4.2v7.9zM131.3 124.9V117h.5v7.9zm1.1 0V117h.5v7.9zM134.9 124.9V117h4.2v7.9zM139.9 124.9V117h4.2v7.9zM146.5 124.9h-.5v-4.7h2.9v.5h-2.4zm1.1-3.1v3.1h-.5v-3.6h1.8v.5zM153.8 120.7h-4.2v-.5h4.2zm0 1.1h-4.2v-.5h4.2zM158.7 120.7h-4.2v-.5h4.2zm0 1.1h-4.2v-.5h4.2zM163.6 120.7h-4.2v-.5h4.2zm0 1.1h-4.2v-.5h4.2zM168.5 120.7h-4.2v-.5h4.2zm0 1.1h-4.2v-.5h4.2zM171.6 117h.5v4.8h-2.9v-.5h2.4zm-1.1 3.2V117h.5v3.8h-1.8v-.5zM174.1 124.9V117h4.2v7.9zM179 124.9V117h4.2v7.9zM185.6 124.9h-.5v-4.7h2.9v.5h-2.4zm1.2-3.1v3.1h-.5v-3.6h1.8v.5zM192.9 120.7h-4.2v-.5h4.2zm0 1.1h-4.2v-.5h4.2zM197.9 120.7h-4.2v-.5h4.2zm0 1.1h-4.2v-.5h4.2zM202.8 120.7h-4.2v-.5h4.2zm0 1.1h-4.2v-.5h4.2zM203.4 124.9V117h4.2v7.9zM208.4 124.9V117h4.2v7.9zM215.6 124.9v-4.2h-2.4v-.5h2.9v4.7zm-1-3.1h-1.3v-.5h1.8v3.6h-.5zM86 133.2v-7.9h4.2v7.9zM90.9 133.2v-7.9h4.2v7.9zM97.6 133.2h-.5v-4.7h2.9v.5h-2.4zm1.1-3.1v3.1h-.5v-3.6h1.8v.5zM100.7 133.2v-7.9h4.2v7.9zM105.5 133.2v-7.9h4.2v7.9zM112.8 133.2v-4.1h-2.4v-.5h2.9v4.7h-.5zm-1-3.1h-1.3v-.5h1.8v3.6h-.5zM120.2 133.2v-7.9h4.2v7.9zM125.2 133.2v-7.9h4.2v7.9zM131.3 133.2v-7.9h.5v7.9zm1.1 0v-7.9h.5v7.9zM134.9 133.2v-7.9h4.2v7.9zM139.9 133.2v-7.9h4.2v7.9zM144.7 133.2v-7.9h4.2v7.9zM149.6 133.2v-7.9h4.2v7.9zM154.5 133.2v-7.9h4.2v7.9zM161.8 133.2v-4.1h-2.4v-.5h2.9v4.7h-.5zm-1.1-3.1h-1.3v-.5h1.8v3.6h-.5zM174.1 133.2v-7.9h4.2v7.9zM179 133.2v-7.9h4.2v7.9zM185.1 133.2v-7.9h.5v7.9zm1.1 0v-7.9h.5v7.9zM203.4 133.2v-7.9h4.2v7.9zM208.4 133.2v-7.9h4.2v7.9zM214.6 133.2v-7.9h.5v7.9zm1 0v-7.9h.5v7.9zM86 141.6v-7.9h4.2v7.9zM90.9 141.6v-7.9h4.2v7.9zM97.1 141.6v-7.9h.5v7.9zm1.1 0v-7.9h.5v7.9zM102.5 133.7v4.3h2.4v.5H102v-4.8zm1 3.2h1.3v.5H103v-3.8h.5zM105.5 141.6v-7.9h4.2v7.9zM110.4 141.6v-7.9h4.2v7.9zM117.8 141.6v-4.1h-2.4v-.5h2.9v4.6zm-1.1-3h-1.3v-.5h1.8v3.6h-.5zM120.2 141.6v-7.9h4.2v7.9zM125.2 141.6v-7.9h4.2v7.9zM131.3 141.6v-7.9h.5v7.9zm1.1 0v-7.9h.5v7.9zM134.9 141.6v-7.9h4.2v7.9zM139.9 141.6v-7.9h4.2v7.9zM146.5 141.6h-.5V137h2.9v.5h-2.4zm1.1-3v3.1h-.5v-3.6h1.8v.5zM153.8 137.4h-4.2v-.5h4.2zm0 1.2h-4.2v-.5h4.2zM158.7 137.4h-4.2v-.5h4.2zm0 1.2h-4.2v-.5h4.2zM161.8 133.7h.5v4.8h-2.9v-.5h2.4zm-1.1 3.2v-3.2h.5v3.8h-1.8v-.5h1.3zM174.1 141.6v-7.9h4.2v7.9zM179 141.6v-7.9h4.2v7.9zM185.1 141.6v-7.9h.5v7.9zm1.1 0v-7.9h.5v7.9zM203.4 141.6v-7.9h4.2v7.9zM208.4 141.6v-7.9h4.2v7.9zM214.6 141.6v-7.9h.5v7.9zm1 0v-7.9h.5v7.9zM86 150v-7.9h4.2v7.9zM90.9 150v-7.9h4.2v7.9zM97.1 150v-7.9h.5v7.9zm1.1 0v-7.9h.5v7.9zM107.3 142.1v4.3h2.4v.5h-2.9v-4.8zm1.1 3.3h1.3v.5h-1.8v-3.8h.5zM110.4 150v-7.9h4.2v7.9zM115.3 150v-7.9h4.2v7.9zM120.2 150v-7.9h4.2v7.9zM125.2 150v-7.9h4.2v7.9zM131.3 150v-7.9h.5v7.9zm1.1 0v-7.9h.5v7.9zM134.9 150v-7.9h4.2v7.9zM139.9 150v-7.9h4.2v7.9zM144.7 150v-7.9h4.2v7.9zM149.6 150v-7.9h4.2v7.9zM154.5 150v-7.9h4.2v7.9zM159.4 150v-7.9h4.2v7.9zM164.3 150v-7.9h4.2v7.9zM171.6 150v-4.2h-2.4v-.5h2.9v4.6h-.5zm-1.1-3.1h-1.3v-.5h1.8v3.6h-.5zM175.9 142.1v4.3h2.4v.5h-2.9v-4.8zm1.1 3.3h1.3v.5h-1.8v-3.8h.5zM179 150v-7.9h4.2v7.9zM183.8 150v-7.9h4.2v7.9zM188.8 150v-7.9h4.2v7.9zM193.6 150v-7.9h4.2v7.9zM198.6 150v-7.9h4.2v7.9zM203.4 150v-7.9h4.2v7.9zM210.1 150h-.5v-4.6h2.9v.5h-2.4zm1.1-3.1v3.1h-.5v-3.6h1.8v.5zM215.6 142.1h.5v4.8h-2.9v-.5h2.4zm-1 3.3v-3.3h.5v3.8h-1.8v-.5z" class="st0"/></svg>