<svg xmlns="http://www.w3.org/2000/svg" viewBox="0 0 456 200">
<style type="text/css">
	.st0{fill:#164F87;}
</style>
<g>
	<path class="st0" d="M0,15.8V0h8.4v15.8H0z"/>
	<path class="st0" d="M9.8,15.8V0h8.4v15.8H9.8z"/>
	<path class="st0" d="M19.6,15.8V0H28v15.8H19.6z"/>
	<path class="st0" d="M34.1,15.8V7.5h-4.8v-1h5.8v9.3H34.1z M32,9.6h-2.6v-1H33v7.2h-1V9.6z"/>
	<path class="st0" d="M68.5,15.8V0h8.4v15.8H68.5z"/>
	<path class="st0" d="M78.3,15.8V0h8.4v15.8H78.3z"/>
	<path class="st0" d="M88.1,15.8V0h8.4v15.8H88.1z"/>
	<path class="st0" d="M102.7,15.8V7.5h-4.8v-1h5.8v9.3H102.7z M100.5,9.6h-2.6v-1h3.6v7.2h-1V9.6z"/>
	<path class="st0" d="M117.4,15.8V0h8.4v15.8H117.4z"/>
	<path class="st0" d="M127.2,15.8V0h8.4v15.8H127.2z"/>
	<path class="st0" d="M137,15.8V0h8.4v15.8H137z"/>
	<path class="st0" d="M146.8,15.8V0h8.4v15.8H146.8z"/>
	<path class="st0" d="M156.6,15.8V0h8.4v15.8H156.6z"/>
	<path class="st0" d="M171.2,15.8V7.5h-4.8v-1h5.8v9.3H171.2z M169,9.6h-2.6v-1h3.6v7.2h-1V9.6z"/>
	<path class="st0" d="M186,15.8V0h8.4v15.8H186z"/>
	<path class="st0" d="M195.7,15.8V0h8.4v15.8H195.7z"/>
	<path class="st0" d="M205.5,15.8V0h8.4v15.8H205.5z"/>
	<path class="st0" d="M215.3,15.8V0h8.4v15.8H215.3z"/>
	<path class="st0" d="M225.1,15.8V0h8.4v15.8H225.1z"/>
	<path class="st0" d="M234.9,15.8V0h8.4v15.8H234.9z"/>
	<path class="st0" d="M244.7,15.8V0h8.4v15.8H244.7z"/>
	<path class="st0" d="M254.5,15.8V0h8.4v15.8H254.5z"/>
	<path class="st0" d="M269,15.8V7.5h-4.8v-1h5.8v9.3H269z M266.9,9.6h-2.6v-1h3.6v7.2h-1V9.6z"/>
	<path class="st0" d="M274,15.8V0h8.4v15.8H274z"/>
	<path class="st0" d="M283.8,15.8V0h8.4v15.8H283.8z"/>
	<path class="st0" d="M293.6,15.8V0h8.4v15.8H293.6z"/>
	<path class="st0" d="M303.4,15.8V0h8.4v15.8H303.4z"/>
	<path class="st0" d="M313.2,15.8V0h8.4v15.8H313.2z"/>
	<path class="st0" d="M323,15.8V0h8.4v15.8H323z"/>
	<path class="st0" d="M337.5,15.8V7.5h-4.8v-1h5.8v9.3H337.5z M335.4,9.6h-2.6v-1h3.6v7.2h-1V9.6z"/>
	<path class="st0" d="M352.3,15.8V0h8.4v15.8H352.3z"/>
	<path class="st0" d="M362.1,15.8V0h8.4v15.8H362.1z"/>
	<path class="st0" d="M376.7,15.8V7.5h-4.8v-1h5.8v9.3H376.7z M374.5,9.6h-2.6v-1h3.6v7.2h-1V9.6z"/>
	<path class="st0" d="M381.7,15.8V0h8.4v15.8H381.7z"/>
	<path class="st0" d="M391.5,15.8V0h8.4v15.8H391.5z"/>
	<path class="st0" d="M406.1,15.8V7.5h-4.8v-1h5.8v9.3H406.1z M403.9,9.6h-2.6v-1h3.6v7.2h-1V9.6z"/>
	<path class="st0" d="M430.6,15.8V0h8.4v15.8H430.6z"/>
	<path class="st0" d="M440.4,15.8V0h8.4v15.8H440.4z"/>
	<path class="st0" d="M455,15.8V7.5h-4.8v-1h5.8v9.3H455z M452.8,9.6h-2.6v-1h3.6v7.2h-1V9.6z"/>
	<path class="st0" d="M0,32.6V16.7h8.4v15.8H0z"/>
	<path class="st0" d="M9.8,32.6V16.7h8.4v15.8H9.8z"/>
	<path class="st0" d="M19.6,32.6V16.7H28v15.8H19.6z"/>
	<path class="st0" d="M29.4,32.6V16.7h8.4v15.8H29.4z"/>
	<path class="st0" d="M43.9,32.6v-8.3h-4.8v-1h5.8v9.3H43.9z M41.7,26.4h-2.6v-1h3.6v7.2h-1V26.4z"/>
	<path class="st0" d="M58.7,32.6V16.7h8.4v15.8H58.7z"/>
	<path class="st0" d="M68.5,32.6V16.7h8.4v15.8H68.5z"/>
	<path class="st0" d="M78.3,32.6V16.7h8.4v15.8H78.3z"/>
	<path class="st0" d="M88.1,32.6V16.7h8.4v15.8H88.1z"/>
	<path class="st0" d="M100.5,32.6V16.7h1v15.8H100.5z M102.7,32.6V16.7h1v15.8H102.7z"/>
	<path class="st0" d="M107.7,32.6V16.7h8.4v15.8H107.7z"/>
	<path class="st0" d="M117.4,32.6V16.7h8.4v15.8H117.4z"/>
	<path class="st0" d="M130.8,32.6h-1v-9.3h5.8v1h-4.8V32.6z M133,26.4v6.2h-1v-7.2h3.6v1H133z"/>
	<path class="st0" d="M145.4,24.2H137v-1h8.4V24.2z M145.4,26.4H137v-1h8.4V26.4z"/>
	<path class="st0" d="M155.2,24.2h-8.4v-1h8.4V24.2z M155.2,26.4h-8.4v-1h8.4V26.4z"/>
	<path class="st0" d="M156.6,32.6V16.7h8.4v15.8H156.6z"/>
	<path class="st0" d="M166.4,32.6V16.7h8.4v15.8H166.4z"/>
	<path class="st0" d="M181,32.6v-8.3h-4.8v-1h5.8v9.3H181z M178.8,26.4h-2.6v-1h3.6v7.2h-1V26.4z"/>
	<path class="st0" d="M189.6,16.7v8.6h4.8v1h-5.8v-9.6H189.6z M191.7,23.2h2.6v1h-3.6v-7.5h1V23.2z"/>
	<path class="st0" d="M204.1,24.2h-8.4v-1h8.4V24.2z M204.1,26.4h-8.4v-1h8.4V26.4z"/>
	<path class="st0" d="M213.9,24.2h-8.4v-1h8.4V24.2z M213.9,26.4h-8.4v-1h8.4V26.4z"/>
	<path class="st0" d="M215.3,32.6V16.7h8.4v15.8H215.3z"/>
	<path class="st0" d="M225.1,32.6V16.7h8.4v15.8H225.1z"/>
	<path class="st0" d="M238.5,32.6h-1v-9.3h5.8v1h-4.8V32.6z M240.7,26.4v6.2h-1v-7.2h3.6v1H240.7z"/>
	<path class="st0" d="M253.1,24.2h-8.4v-1h8.4V24.2z M253.1,26.4h-8.4v-1h8.4V26.4z"/>
	<path class="st0" d="M262.8,24.2h-8.4v-1h8.4V24.2z M262.8,26.4h-8.4v-1h8.4V26.4z"/>
	<path class="st0" d="M269,16.7h1v9.6h-5.8v-1h4.8V16.7z M266.9,23.2v-6.5h1v7.5h-3.6v-1H266.9z"/>
	<path class="st0" d="M274,32.6V16.7h8.4v15.8H274z"/>
	<path class="st0" d="M283.8,32.6V16.7h8.4v15.8H283.8z"/>
	<path class="st0" d="M297.2,32.6h-1v-9.3h5.8v1h-4.8V32.6z M299.4,26.4v6.2h-1v-7.2h3.6v1H299.4z"/>
	<path class="st0" d="M311.8,24.2h-8.4v-1h8.4V24.2z M311.8,26.4h-8.4v-1h8.4V26.4z"/>
	<path class="st0" d="M321.6,24.2h-8.4v-1h8.4V24.2z M321.6,26.4h-8.4v-1h8.4V26.4z"/>
	<path class="st0" d="M323,32.6V16.7h8.4v15.8H323z"/>
	<path class="st0" d="M332.8,32.6V16.7h8.4v15.8H332.8z"/>
	<path class="st0" d="M347.3,32.6v-8.3h-4.8v-1h5.8v9.3H347.3z M345.2,26.4h-2.6v-1h3.6v7.2h-1V26.4z"/>
	<path class="st0" d="M352.3,32.6V16.7h8.4v15.8H352.3z"/>
	<path class="st0" d="M362.1,32.6V16.7h8.4v15.8H362.1z"/>
	<path class="st0" d="M374.5,32.6V16.7h1v15.8H374.5z M376.7,32.6V16.7h1v15.8H376.7z"/>
	<path class="st0" d="M385.3,16.7v8.6h4.8v1h-5.8v-9.6H385.3z M387.5,23.2h2.6v1h-3.6v-7.5h1V23.2z"/>
	<path class="st0" d="M391.5,32.6V16.7h8.4v15.8H391.5z"/>
	<path class="st0" d="M401.3,32.6V16.7h8.4v15.8H401.3z"/>
	<path class="st0" d="M415.8,32.6v-8.3h-4.8v-1h5.8v9.3H415.8z M413.7,26.4h-2.6v-1h3.6v7.2h-1V26.4z"/>
	<path class="st0" d="M420.9,32.6V16.7h8.4v15.8H420.9z"/>
	<path class="st0" d="M430.6,32.6V16.7h8.4v15.8H430.6z"/>
	<path class="st0" d="M444,32.6h-1v-9.3h5.8v1H444V32.6z M446.2,26.4v6.2h-1v-7.2h3.6v1H446.2z"/>
	<path class="st0" d="M455,16.7h1v9.6h-5.8v-1h4.8V16.7z M452.8,23.2v-6.5h1v7.5h-3.6v-1H452.8z"/>
	<path class="st0" d="M0,49.3V33.5h8.4v15.8H0z"/>
	<path class="st0" d="M9.8,49.3V33.5h8.4v15.8H9.8z"/>
	<path class="st0" d="M23.2,49.3h-1v-9.3H28v1h-4.8V49.3z M25.4,43.1v6.2h-1v-7.2H28v1H25.4z"/>
	<path class="st0" d="M29.4,49.3V33.5h8.4v15.8H29.4z"/>
	<path class="st0" d="M39.1,49.3V33.5h8.4v15.8H39.1z"/>
	<path class="st0" d="M48.9,49.3V33.5h8.4v15.8H48.9z"/>
	<path class="st0" d="M58.7,49.3V33.5h8.4v15.8H58.7z"/>
	<path class="st0" d="M72.1,49.3h-1v-9.3h5.8v1h-4.8V49.3z M74.3,43.1v6.2h-1v-7.2h3.6v1H74.3z"/>
	<path class="st0" d="M78.3,49.3V33.5h8.4v15.8H78.3z"/>
	<path class="st0" d="M88.1,49.3V33.5h8.4v15.8H88.1z"/>
	<path class="st0" d="M100.5,49.3V33.5h1v15.8H100.5z M102.7,49.3V33.5h1v15.8H102.7z"/>
	<path class="st0" d="M107.7,49.3V33.5h8.4v15.8H107.7z"/>
	<path class="st0" d="M117.4,49.3V33.5h8.4v15.8H117.4z"/>
	<path class="st0" d="M127.2,49.3V33.5h8.4v15.8H127.2z"/>
	<path class="st0" d="M137,49.3V33.5h8.4v15.8H137z"/>
	<path class="st0" d="M146.8,49.3V33.5h8.4v15.8H146.8z"/>
	<path class="st0" d="M156.6,49.3V33.5h8.4v15.8H156.6z"/>
	<path class="st0" d="M166.4,49.3V33.5h8.4v15.8H166.4z"/>
	<path class="st0" d="M178.8,49.3V33.5h1v15.8H178.8z M181,49.3V33.5h1v15.8H181z"/>
	<path class="st0" d="M215.3,49.3V33.5h8.4v15.8H215.3z"/>
	<path class="st0" d="M225.1,49.3V33.5h8.4v15.8H225.1z"/>
	<path class="st0" d="M237.5,49.3V33.5h1v15.8H237.5z M239.7,49.3V33.5h1v15.8H239.7z"/>
	<path class="st0" d="M274,49.3V33.5h8.4v15.8H274z"/>
	<path class="st0" d="M283.8,49.3V33.5h8.4v15.8H283.8z"/>
	<path class="st0" d="M293.6,49.3V33.5h8.4v15.8H293.6z"/>
	<path class="st0" d="M303.4,49.3V33.5h8.4v15.8H303.4z"/>
	<path class="st0" d="M313.2,49.3V33.5h8.4v15.8H313.2z"/>
	<path class="st0" d="M323,49.3V33.5h8.4v15.8H323z"/>
	<path class="st0" d="M336.4,49.3h-1v-9.3h5.8v1h-4.8V49.3z M338.6,43.1v6.2h-1v-7.2h3.6v1H338.6z"/>
	<path class="st0" d="M347.3,33.5h1v9.6h-5.8v-1h4.8V33.5z M345.2,39.9v-6.5h1v7.5h-3.6v-1H345.2z"/>
	<path class="st0" d="M352.3,49.3V33.5h8.4v15.8H352.3z"/>
	<path class="st0" d="M362.1,49.3V33.5h8.4v15.8H362.1z"/>
	<path class="st0" d="M374.5,49.3V33.5h1v15.8H374.5z M376.7,49.3V33.5h1v15.8H376.7z"/>
	<path class="st0" d="M395.1,33.5v8.6h4.8v1h-5.8v-9.6H395.1z M397.3,39.9h2.6v1h-3.6v-7.5h1V39.9z"/>
	<path class="st0" d="M401.3,49.3V33.5h8.4v15.8H401.3z"/>
	<path class="st0" d="M411.1,49.3V33.5h8.4v15.8H411.1z"/>
	<path class="st0" d="M420.9,49.3V33.5h8.4v15.8H420.9z"/>
	<path class="st0" d="M434.2,49.3h-1v-9.3h5.8v1h-4.8V49.3z M436.4,43.1v6.2h-1v-7.2h3.6v1H436.4z"/>
	<path class="st0" d="M445.2,33.5h1v9.6h-5.8v-1h4.8V33.5z M443,39.9v-6.5h1v7.5h-3.6v-1H443z"/>
	<path class="st0" d="M0,66V50.2h8.4V66H0z"/>
	<path class="st0" d="M9.8,66V50.2h8.4V66H9.8z"/>
	<path class="st0" d="M22.2,66V50.2h1V66H22.2z M24.4,66V50.2h1V66H24.4z"/>
	<path class="st0" d="M33,50.2v8.6h4.8v1H32v-9.6H33z M35.1,56.7h2.6v1h-3.6v-7.5h1V56.7z"/>
	<path class="st0" d="M39.1,66V50.2h8.4V66H39.1z"/>
	<path class="st0" d="M48.9,66V50.2h8.4V66H48.9z"/>
	<path class="st0" d="M62.3,66h-1v-9.3h5.8v1h-4.8V66z M64.5,59.9V66h-1v-7.2h3.6v1H64.5z"/>
	<path class="st0" d="M73.3,50.2h1v9.6h-5.8v-1h4.8V50.2z M71.1,56.7v-6.5h1v7.5h-3.6v-1H71.1z"/>
	<path class="st0" d="M78.3,66V50.2h8.4V66H78.3z"/>
	<path class="st0" d="M88.1,66V50.2h8.4V66H88.1z"/>
	<path class="st0" d="M100.5,66V50.2h1V66H100.5z M102.7,66V50.2h1V66H102.7z"/>
	<path class="st0" d="M107.7,66V50.2h8.4V66H107.7z"/>
	<path class="st0" d="M117.4,66V50.2h8.4V66H117.4z"/>
	<path class="st0" d="M130.8,66h-1v-9.3h5.8v1h-4.8V66z M133,59.9V66h-1v-7.2h3.6v1H133z"/>
	<path class="st0" d="M145.4,57.7H137v-1h8.4V57.7z M145.4,59.9H137v-1h8.4V59.9z"/>
	<path class="st0" d="M155.2,57.7h-8.4v-1h8.4V57.7z M155.2,59.9h-8.4v-1h8.4V59.9z"/>
	<path class="st0" d="M156.6,66V50.2h8.4V66H156.6z"/>
	<path class="st0" d="M166.4,66V50.2h8.4V66H166.4z"/>
	<path class="st0" d="M178.8,66V50.2h1V66H178.8z M181,66V50.2h1V66H181z"/>
	<path class="st0" d="M215.3,66V50.2h8.4V66H215.3z"/>
	<path class="st0" d="M225.1,66V50.2h8.4V66H225.1z"/>
	<path class="st0" d="M237.5,66V50.2h1V66H237.5z M239.7,66V50.2h1V66H239.7z"/>
	<path class="st0" d="M274,66V50.2h8.4V66H274z"/>
	<path class="st0" d="M283.8,66V50.2h8.4V66H283.8z"/>
	<path class="st0" d="M297.2,66h-1v-9.3h5.8v1h-4.8V66z M299.4,59.9V66h-1v-7.2h3.6v1H299.4z"/>
	<path class="st0" d="M311.8,57.7h-8.4v-1h8.4V57.7z M311.8,59.9h-8.4v-1h8.4V59.9z"/>
	<path class="st0" d="M321.6,57.7h-8.4v-1h8.4V57.7z M321.6,59.9h-8.4v-1h8.4V59.9z"/>
	<path class="st0" d="M323,66V50.2h8.4V66H323z"/>
	<path class="st0" d="M332.8,66V50.2h8.4V66H332.8z"/>
	<path class="st0" d="M347.3,66v-8.3h-4.8v-1h5.8V66H347.3z M345.2,59.9h-2.6v-1h3.6V66h-1V59.9z"/>
	<path class="st0" d="M352.3,66V50.2h8.4V66H352.3z"/>
	<path class="st0" d="M362.1,66V50.2h8.4V66H362.1z"/>
	<path class="st0" d="M374.5,66V50.2h1V66H374.5z M376.7,66V50.2h1V66H376.7z"/>
	<path class="st0" d="M391.5,66V50.2h8.4V66H391.5z"/>
	<path class="st0" d="M401.3,66V50.2h8.4V66H401.3z"/>
	<path class="st0" d="M414.7,66h-1v-9.3h5.8v1h-4.8V66z M416.9,59.9V66h-1v-7.2h3.6v1H416.9z"/>
	<path class="st0" d="M420.9,66V50.2h8.4V66H420.9z"/>
	<path class="st0" d="M430.6,66V50.2h8.4V66H430.6z"/>
	<path class="st0" d="M445.2,66v-8.3h-4.8v-1h5.8V66H445.2z M443,59.9h-2.6v-1h3.6V66h-1V59.9z"/>
	<path class="st0" d="M0,82.8V67h8.4v15.8H0z"/>
	<path class="st0" d="M9.8,82.8V67h8.4v15.8H9.8z"/>
	<path class="st0" d="M22.2,82.8V67h1v15.8H22.2z M24.4,82.8V67h1v15.8H24.4z"/>
	<path class="st0" d="M42.7,67v8.6h4.8v1h-5.8V67H42.7z M44.9,73.4h2.6v1h-3.6V67h1V73.4z"/>
	<path class="st0" d="M57.3,74.4h-8.4v-1h8.4V74.4z M57.3,76.6h-8.4v-1h8.4V76.6z"/>
	<path class="st0" d="M63.5,67h1v9.6h-5.8v-1h4.8V67z M61.3,73.4V67h1v7.5h-3.6v-1H61.3z"/>
	<path class="st0" d="M78.3,82.8V67h8.4v15.8H78.3z"/>
	<path class="st0" d="M88.1,82.8V67h8.4v15.8H88.1z"/>
	<path class="st0" d="M100.5,82.8V67h1v15.8H100.5z M102.7,82.8V67h1v15.8H102.7z"/>
	<path class="st0" d="M107.7,82.8V67h8.4v15.8H107.7z"/>
	<path class="st0" d="M117.4,82.8V67h8.4v15.8H117.4z"/>
	<path class="st0" d="M129.8,82.8V67h1v15.8H129.8z M132,82.8V67h1v15.8H132z"/>
	<path class="st0" d="M156.6,82.8V67h8.4v15.8H156.6z"/>
	<path class="st0" d="M166.4,82.8V67h8.4v15.8H166.4z"/>
	<path class="st0" d="M178.8,82.8V67h1v15.8H178.8z M181,82.8V67h1v15.8H181z"/>
	<path class="st0" d="M215.3,82.8V67h8.4v15.8H215.3z"/>
	<path class="st0" d="M225.1,82.8V67h8.4v15.8H225.1z"/>
	<path class="st0" d="M237.5,82.8V67h1v15.8H237.5z M239.7,82.8V67h1v15.8H239.7z"/>
	<path class="st0" d="M274,82.8V67h8.4v15.8H274z"/>
	<path class="st0" d="M283.8,82.8V67h8.4v15.8H283.8z"/>
	<path class="st0" d="M296.2,82.8V67h1v15.8H296.2z M298.4,82.8V67h1v15.8H298.4z"/>
	<path class="st0" d="M323,82.8V67h8.4v15.8H323z"/>
	<path class="st0" d="M332.8,82.8V67h8.4v15.8H332.8z"/>
	<path class="st0" d="M345.2,82.8V67h1v15.8H345.2z M347.3,82.8V67h1v15.8H347.3z"/>
	<path class="st0" d="M352.3,82.8V67h8.4v15.8H352.3z"/>
	<path class="st0" d="M362.1,82.8V67h8.4v15.8H362.1z"/>
	<path class="st0" d="M374.5,82.8V67h1v15.8H374.5z M376.7,82.8V67h1v15.8H376.7z"/>
	<path class="st0" d="M381.7,82.8V67h8.4v15.8H381.7z"/>
	<path class="st0" d="M391.5,82.8V67h8.4v15.8H391.5z"/>
	<path class="st0" d="M404.9,82.8h-1v-9.3h5.8v1h-4.8V82.8z M407.1,76.6v6.2h-1v-7.2h3.6v1H407.1z"/>
	<path class="st0" d="M415.8,67h1v9.6h-5.8v-1h4.8V67z M413.7,73.4V67h1v7.5h-3.6v-1H413.7z"/>
	<path class="st0" d="M430.6,82.8V67h8.4v15.8H430.6z"/>
	<path class="st0" d="M440.4,82.8V67h8.4v15.8H440.4z"/>
	<path class="st0" d="M455,82.8v-8.3h-4.8v-1h5.8v9.3H455z M452.8,76.6h-2.6v-1h3.6v7.2h-1V76.6z"/>
	<path class="st0" d="M3.6,83.7v8.6h4.8v1H2.6v-9.6H3.6z M5.8,90.2h2.6v1H4.8v-7.5h1V90.2z"/>
	<path class="st0" d="M18.2,91.2H9.8v-1h8.4V91.2z M18.2,93.4H9.8v-1h8.4V93.4z"/>
	<path class="st0" d="M24.4,83.7h1v9.6h-5.8v-1h4.8V83.7z M22.2,90.2v-6.5h1v7.5h-3.6v-1H22.2z"/>
	<path class="st0" d="M81.9,83.7v8.6h4.8v1h-5.8v-9.6H81.9z M84.1,90.2h2.6v1h-3.6v-7.5h1V90.2z"/>
	<path class="st0" d="M96.5,91.2h-8.4v-1h8.4V91.2z M96.5,93.4h-8.4v-1h8.4V93.4z"/>
	<path class="st0" d="M102.7,83.7h1v9.6h-5.8v-1h4.8V83.7z M100.5,90.2v-6.5h1v7.5h-3.6v-1H100.5z"/>
	<path class="st0" d="M111.3,83.7v8.6h4.8v1h-5.8v-9.6H111.3z M113.4,90.2h2.6v1h-3.6v-7.5h1V90.2z"/>
	<path class="st0" d="M125.8,91.2h-8.4v-1h8.4V91.2z M125.8,93.4h-8.4v-1h8.4V93.4z"/>
	<path class="st0" d="M132,83.7h1v9.6h-5.8v-1h4.8V83.7z M129.8,90.2v-6.5h1v7.5h-3.6v-1H129.8z"/>
	<path class="st0" d="M160.2,83.7v8.6h4.8v1h-5.8v-9.6H160.2z M162.4,90.2h2.6v1h-3.6v-7.5h1V90.2z"/>
	<path class="st0" d="M174.8,91.2h-8.4v-1h8.4V91.2z M174.8,93.4h-8.4v-1h8.4V93.4z"/>
	<path class="st0" d="M181,83.7h1v9.6h-5.8v-1h4.8V83.7z M178.8,90.2v-6.5h1v7.5h-3.6v-1H178.8z"/>
	<path class="st0" d="M218.9,83.7v8.6h4.8v1h-5.8v-9.6H218.9z M221.1,90.2h2.6v1h-3.6v-7.5h1V90.2z"/>
	<path class="st0" d="M233.5,91.2h-8.4v-1h8.4V91.2z M233.5,93.4h-8.4v-1h8.4V93.4z"/>
	<path class="st0" d="M239.7,83.7h1v9.6h-5.8v-1h4.8V83.7z M237.5,90.2v-6.5h1v7.5h-3.6v-1H237.5z"/>
	<path class="st0" d="M277.6,83.7v8.6h4.8v1h-5.8v-9.6H277.6z M279.8,90.2h2.6v1h-3.6v-7.5h1V90.2z"/>
	<path class="st0" d="M292.2,91.2h-8.4v-1h8.4V91.2z M292.2,93.4h-8.4v-1h8.4V93.4z"/>
	<path class="st0" d="M298.4,83.7h1v9.6h-5.8v-1h4.8V83.7z M296.2,90.2v-6.5h1v7.5h-3.6v-1H296.2z"/>
	<path class="st0" d="M326.6,83.7v8.6h4.8v1h-5.8v-9.6H326.6z M328.8,90.2h2.6v1h-3.6v-7.5h1V90.2z"/>
	<path class="st0" d="M341.1,91.2h-8.4v-1h8.4V91.2z M341.1,93.4h-8.4v-1h8.4V93.4z"/>
	<path class="st0" d="M347.3,83.7h1v9.6h-5.8v-1h4.8V83.7z M345.2,90.2v-6.5h1v7.5h-3.6v-1H345.2z"/>
	<path class="st0" d="M355.9,83.7v8.6h4.8v1h-5.8v-9.6H355.9z M358.1,90.2h2.6v1h-3.6v-7.5h1V90.2z"/>
	<path class="st0" d="M370.5,91.2h-8.4v-1h8.4V91.2z M370.5,93.4h-8.4v-1h8.4V93.4z"/>
	<path class="st0" d="M376.7,83.7h1v9.6h-5.8v-1h4.8V83.7z M374.5,90.2v-6.5h1v7.5h-3.6v-1H374.5z"/>
	<path class="st0" d="M385.3,83.7v8.6h4.8v1h-5.8v-9.6H385.3z M387.5,90.2h2.6v1h-3.6v-7.5h1V90.2z"/>
	<path class="st0" d="M399.9,91.2h-8.4v-1h8.4V91.2z M399.9,93.4h-8.4v-1h8.4V93.4z"/>
	<path class="st0" d="M406.1,83.7h1v9.6h-5.8v-1h4.8V83.7z M403.9,90.2v-6.5h1v7.5h-3.6v-1H403.9z"/>
	<path class="st0" d="M434.2,83.7v8.6h4.8v1h-5.8v-9.6H434.2z M436.4,90.2h2.6v1h-3.6v-7.5h1V90.2z"/>
	<path class="st0" d="M448.8,91.2h-8.4v-1h8.4V91.2z M448.8,93.4h-8.4v-1h8.4V93.4z"/>
	<path class="st0" d="M455,83.7h1v9.6h-5.8v-1h4.8V83.7z M452.8,90.2v-6.5h1v7.5h-3.6v-1H452.8z"/>
	<path class="st0" d="M0,133v-15.8h8.4V133H0z"/>
	<path class="st0" d="M9.8,133v-15.8h8.4V133H9.8z"/>
	<path class="st0" d="M19.6,133v-15.8H28V133H19.6z"/>
	<path class="st0" d="M34.1,133v-8.3h-4.8v-1h5.8v9.3H34.1z M32,126.9h-2.6v-1H33v7.2h-1V126.9z"/>
	<path class="st0" d="M68.5,133v-15.8h8.4V133H68.5z"/>
	<path class="st0" d="M78.3,133v-15.8h8.4V133H78.3z"/>
	<path class="st0" d="M92.9,133v-8.3h-4.8v-1h5.8v9.3H92.9z M90.7,126.9h-2.6v-1h3.6v7.2h-1V126.9z"/>
	<path class="st0" d="M97.9,133v-15.8h8.4V133H97.9z"/>
	<path class="st0" d="M107.7,133v-15.8h8.4V133H107.7z"/>
	<path class="st0" d="M117.4,133v-15.8h8.4V133H117.4z"/>
	<path class="st0" d="M127.2,133v-15.8h8.4V133H127.2z"/>
	<path class="st0" d="M137,133v-15.8h8.4V133H137z"/>
	<path class="st0" d="M146.8,133v-15.8h8.4V133H146.8z"/>
	<path class="st0" d="M156.6,133v-15.8h8.4V133H156.6z"/>
	<path class="st0" d="M171.2,133v-8.3h-4.8v-1h5.8v9.3H171.2z M169,126.9h-2.6v-1h3.6v7.2h-1V126.9z"/>
	<path class="st0" d="M186,133v-15.8h8.4V133H186z"/>
	<path class="st0" d="M195.7,133v-15.8h8.4V133H195.7z"/>
	<path class="st0" d="M205.5,133v-15.8h8.4V133H205.5z"/>
	<path class="st0" d="M215.3,133v-15.8h8.4V133H215.3z"/>
	<path class="st0" d="M225.1,133v-15.8h8.4V133H225.1z"/>
	<path class="st0" d="M234.9,133v-15.8h8.4V133H234.9z"/>
	<path class="st0" d="M249.5,133v-8.3h-4.8v-1h5.8v9.3H249.5z M247.3,126.9h-2.6v-1h3.6v7.2h-1V126.9z"/>
	<path class="st0" d="M0,149.8V134h8.4v15.8H0z"/>
	<path class="st0" d="M9.8,149.8V134h8.4v15.8H9.8z"/>
	<path class="st0" d="M19.6,149.8V134H28v15.8H19.6z"/>
	<path class="st0" d="M29.4,149.8V134h8.4v15.8H29.4z"/>
	<path class="st0" d="M43.9,149.8v-8.3h-4.8v-1h5.8v9.3H43.9z M41.7,143.6h-2.6v-1h3.6v7.2h-1V143.6z"/>
	<path class="st0" d="M68.5,149.8V134h8.4v15.8H68.5z"/>
	<path class="st0" d="M78.3,149.8V134h8.4v15.8H78.3z"/>
	<path class="st0" d="M90.7,149.8V134h1v15.8H90.7z M92.9,149.8V134h1v15.8H92.9z"/>
	<path class="st0" d="M97.9,149.8V134h8.4v15.8H97.9z"/>
	<path class="st0" d="M107.7,149.8V134h8.4v15.8H107.7z"/>
	<path class="st0" d="M121,149.8h-1v-9.3h5.8v1H121V149.8z M123.2,143.6v6.2h-1v-7.2h3.6v1H123.2z"/>
	<path class="st0" d="M135.6,141.4h-8.4v-1h8.4V141.4z M135.6,143.6h-8.4v-1h8.4V143.6z"/>
	<path class="st0" d="M145.4,141.4H137v-1h8.4V141.4z M145.4,143.6H137v-1h8.4V143.6z"/>
	<path class="st0" d="M155.2,141.4h-8.4v-1h8.4V141.4z M155.2,143.6h-8.4v-1h8.4V143.6z"/>
	<path class="st0" d="M165,141.4h-8.4v-1h8.4V141.4z M165,143.6h-8.4v-1h8.4V143.6z"/>
	<path class="st0" d="M171.2,134h1v9.6h-5.8v-1h4.8V134z M169,140.4V134h1v7.5h-3.6v-1H169z"/>
	<path class="st0" d="M176.2,149.8V134h8.4v15.8H176.2z"/>
	<path class="st0" d="M186,149.8V134h8.4v15.8H186z"/>
	<path class="st0" d="M199.3,149.8h-1v-9.3h5.8v1h-4.8V149.8z M201.5,143.6v6.2h-1v-7.2h3.6v1H201.5z"/>
	<path class="st0" d="M213.9,141.4h-8.4v-1h8.4V141.4z M213.9,143.6h-8.4v-1h8.4V143.6z"/>
	<path class="st0" d="M223.7,141.4h-8.4v-1h8.4V141.4z M223.7,143.6h-8.4v-1h8.4V143.6z"/>
	<path class="st0" d="M233.5,141.4h-8.4v-1h8.4V141.4z M233.5,143.6h-8.4v-1h8.4V143.6z"/>
	<path class="st0" d="M234.9,149.8V134h8.4v15.8H234.9z"/>
	<path class="st0" d="M244.7,149.8V134h8.4v15.8H244.7z"/>
	<path class="st0" d="M259.2,149.8v-8.3h-4.8v-1h5.8v9.3H259.2z M257.1,143.6h-2.6v-1h3.6v7.2h-1V143.6z"/>
	<path class="st0" d="M0,166.5v-15.8h8.4v15.8H0z"/>
	<path class="st0" d="M9.8,166.5v-15.8h8.4v15.8H9.8z"/>
	<path class="st0" d="M23.2,166.5h-1v-9.3H28v1h-4.8V166.5z M25.4,160.3v6.2h-1v-7.2H28v1H25.4z"/>
	<path class="st0" d="M29.4,166.5v-15.8h8.4v15.8H29.4z"/>
	<path class="st0" d="M39.1,166.5v-15.8h8.4v15.8H39.1z"/>
	<path class="st0" d="M53.7,166.5v-8.3h-4.8v-1h5.8v9.3H53.7z M51.5,160.3h-2.6v-1h3.6v7.2h-1V160.3z"/>
	<path class="st0" d="M68.5,166.5v-15.8h8.4v15.8H68.5z"/>
	<path class="st0" d="M78.3,166.5v-15.8h8.4v15.8H78.3z"/>
	<path class="st0" d="M90.7,166.5v-15.8h1v15.8H90.7z M92.9,166.5v-15.8h1v15.8H92.9z"/>
	<path class="st0" d="M97.9,166.5v-15.8h8.4v15.8H97.9z"/>
	<path class="st0" d="M107.7,166.5v-15.8h8.4v15.8H107.7z"/>
	<path class="st0" d="M117.4,166.5v-15.8h8.4v15.8H117.4z"/>
	<path class="st0" d="M127.2,166.5v-15.8h8.4v15.8H127.2z"/>
	<path class="st0" d="M137,166.5v-15.8h8.4v15.8H137z"/>
	<path class="st0" d="M151.6,166.5v-8.3h-4.8v-1h5.8v9.3H151.6z M149.4,160.3h-2.6v-1h3.6v7.2h-1V160.3z"/>
	<path class="st0" d="M176.2,166.5v-15.8h8.4v15.8H176.2z"/>
	<path class="st0" d="M186,166.5v-15.8h8.4v15.8H186z"/>
	<path class="st0" d="M198.3,166.5v-15.8h1v15.8H198.3z M200.5,166.5v-15.8h1v15.8H200.5z"/>
	<path class="st0" d="M234.9,166.5v-15.8h8.4v15.8H234.9z"/>
	<path class="st0" d="M244.7,166.5v-15.8h8.4v15.8H244.7z"/>
	<path class="st0" d="M257.1,166.5v-15.8h1v15.8H257.1z M259.2,166.5v-15.8h1v15.8H259.2z"/>
	<path class="st0" d="M0,183.3v-15.8h8.4v15.8H0z"/>
	<path class="st0" d="M9.8,183.3v-15.8h8.4v15.8H9.8z"/>
	<path class="st0" d="M22.2,183.3v-15.8h1v15.8H22.2z M24.4,183.3v-15.8h1v15.8H24.4z"/>
	<path class="st0" d="M33,167.4v8.6h4.8v1H32v-9.6H33z M35.1,173.9h2.6v1h-3.6v-7.5h1V173.9z"/>
	<path class="st0" d="M39.1,183.3v-15.8h8.4v15.8H39.1z"/>
	<path class="st0" d="M48.9,183.3v-15.8h8.4v15.8H48.9z"/>
	<path class="st0" d="M63.5,183.3v-8.3h-4.8v-1h5.8v9.3H63.5z M61.3,177.1h-2.6v-1h3.6v7.2h-1V177.1z"/>
	<path class="st0" d="M68.5,183.3v-15.8h8.4v15.8H68.5z"/>
	<path class="st0" d="M78.3,183.3v-15.8h8.4v15.8H78.3z"/>
	<path class="st0" d="M90.7,183.3v-15.8h1v15.8H90.7z M92.9,183.3v-15.8h1v15.8H92.9z"/>
	<path class="st0" d="M97.9,183.3v-15.8h8.4v15.8H97.9z"/>
	<path class="st0" d="M107.7,183.3v-15.8h8.4v15.8H107.7z"/>
	<path class="st0" d="M121,183.3h-1v-9.3h5.8v1H121V183.3z M123.2,177.1v6.2h-1v-7.2h3.6v1H123.2z"/>
	<path class="st0" d="M135.6,174.9h-8.4v-1h8.4V174.9z M135.6,177.1h-8.4v-1h8.4V177.1z"/>
	<path class="st0" d="M145.4,174.9H137v-1h8.4V174.9z M145.4,177.1H137v-1h8.4V177.1z"/>
	<path class="st0" d="M151.6,167.4h1v9.6h-5.8v-1h4.8V167.4z M149.4,173.9v-6.5h1v7.5h-3.6v-1H149.4z"/>
	<path class="st0" d="M176.2,183.3v-15.8h8.4v15.8H176.2z"/>
	<path class="st0" d="M186,183.3v-15.8h8.4v15.8H186z"/>
	<path class="st0" d="M198.3,183.3v-15.8h1v15.8H198.3z M200.5,183.3v-15.8h1v15.8H200.5z"/>
	<path class="st0" d="M234.9,183.3v-15.8h8.4v15.8H234.9z"/>
	<path class="st0" d="M244.7,183.3v-15.8h8.4v15.8H244.7z"/>
	<path class="st0" d="M257.1,183.3v-15.8h1v15.8H257.1z M259.2,183.3v-15.8h1v15.8H259.2z"/>
	<path class="st0" d="M0,200v-15.8h8.4V200H0z"/>
	<path class="st0" d="M9.8,200v-15.8h8.4V200H9.8z"/>
	<path class="st0" d="M22.2,200v-15.8h1V200H22.2z M24.4,200v-15.8h1V200H24.4z"/>
	<path class="st0" d="M42.7,184.2v8.6h4.8v1h-5.8v-9.6H42.7z M44.9,190.7h2.6v1h-3.6v-7.5h1V190.7z"/>
	<path class="st0" d="M48.9,200v-15.8h8.4V200H48.9z"/>
	<path class="st0" d="M58.7,200v-15.8h8.4V200H58.7z"/>
	<path class="st0" d="M68.5,200v-15.8h8.4V200H68.5z"/>
	<path class="st0" d="M78.3,200v-15.8h8.4V200H78.3z"/>
	<path class="st0" d="M90.7,200v-15.8h1V200H90.7z M92.9,200v-15.8h1V200H92.9z"/>
	<path class="st0" d="M97.9,200v-15.8h8.4V200H97.9z"/>
	<path class="st0" d="M107.7,200v-15.8h8.4V200H107.7z"/>
	<path class="st0" d="M117.4,200v-15.8h8.4V200H117.4z"/>
	<path class="st0" d="M127.2,200v-15.8h8.4V200H127.2z"/>
	<path class="st0" d="M137,200v-15.8h8.4V200H137z"/>
	<path class="st0" d="M146.8,200v-15.8h8.4V200H146.8z"/>
	<path class="st0" d="M156.6,200v-15.8h8.4V200H156.6z"/>
	<path class="st0" d="M171.2,200v-8.3h-4.8v-1h5.8v9.3H171.2z M169,193.8h-2.6v-1h3.6v7.2h-1V193.8z"/>
	<path class="st0" d="M179.8,184.2v8.6h4.8v1h-5.8v-9.6H179.8z M182,190.7h2.6v1H181v-7.5h1V190.7z"/>
	<path class="st0" d="M186,200v-15.8h8.4V200H186z"/>
	<path class="st0" d="M195.7,200v-15.8h8.4V200H195.7z"/>
	<path class="st0" d="M205.5,200v-15.8h8.4V200H205.5z"/>
	<path class="st0" d="M215.3,200v-15.8h8.4V200H215.3z"/>
	<path class="st0" d="M225.1,200v-15.8h8.4V200H225.1z"/>
	<path class="st0" d="M234.9,200v-15.8h8.4V200H234.9z"/>
	<path class="st0" d="M248.3,200h-1v-9.3h5.8v1h-4.8V200z M250.5,193.8v6.2h-1v-7.2h3.6v1H250.5z"/>
	<path class="st0" d="M259.2,184.2h1v9.6h-5.8v-1h4.8V184.2z M257.1,190.7v-6.5h1v7.5h-3.6v-1H257.1z"/>
</g>
</svg>
